solid OpenSCAD_Model
  facet normal 0.951057 0.309017 0
    outer loop
      vertex 16.8646 3.58468 484.252
      vertex 15.7508 7.0127 0
      vertex 15.7508 7.0127 487.68
    endloop
  endfacet
  facet normal 0.951057 0.309017 0
    outer loop
      vertex 15.7508 7.0127 0
      vertex 16.8646 3.58468 484.252
      vertex 16.8646 3.58468 0
    endloop
  endfacet
  facet normal -0.994522 -0.104529 -0
    outer loop
      vertex -16.8646 -3.58468 477.082
      vertex -17.2414 0 0
      vertex -16.8646 -3.58468 0
    endloop
  endfacet
  facet normal -0.994522 -0.104529 0
    outer loop
      vertex -17.2414 0 0
      vertex -16.8646 -3.58468 477.082
      vertex -17.2414 0 480.667
    endloop
  endfacet
  facet normal 0.994522 0.104529 0
    outer loop
      vertex 17.2414 0 480.667
      vertex 16.8646 3.58468 0
      vertex 16.8646 3.58468 484.252
    endloop
  endfacet
  facet normal 0.994522 0.104529 0
    outer loop
      vertex 16.8646 3.58468 0
      vertex 17.2414 0 480.667
      vertex 17.2414 0 0
    endloop
  endfacet
  facet normal -0.207912 0.978148 0
    outer loop
      vertex -1.80221 17.1469 0
      vertex -5.32788 16.3975 497.064
      vertex -1.80221 17.1469 497.814
    endloop
  endfacet
  facet normal -0.207912 0.978148 0
    outer loop
      vertex -5.32788 16.3975 497.064
      vertex -1.80221 17.1469 0
      vertex -5.32788 16.3975 0
    endloop
  endfacet
  facet normal 0 -1 0
    outer loop
      vertex -1.80221 -17.1469 0
      vertex 1.80221 -17.1469 463.52
      vertex -1.80221 -17.1469 463.52
    endloop
  endfacet
  facet normal 0 -1 -0
    outer loop
      vertex 1.80221 -17.1469 463.52
      vertex -1.80221 -17.1469 0
      vertex 1.80221 -17.1469 0
    endloop
  endfacet
  facet normal 0.406737 0.913545 0
    outer loop
      vertex 5.32788 16.3975 0
      vertex 8.62069 14.9315 495.598
      vertex 8.62069 14.9315 0
    endloop
  endfacet
  facet normal 0.406737 0.913545 0
    outer loop
      vertex 8.62069 14.9315 495.598
      vertex 5.32788 16.3975 0
      vertex 5.32788 16.3975 497.064
    endloop
  endfacet
  facet normal 0.207912 -0.978148 0
    outer loop
      vertex 5.32788 -16.3975 0
      vertex 1.80221 -17.1469 463.52
      vertex 1.80221 -17.1469 0
    endloop
  endfacet
  facet normal 0.207912 -0.978148 0
    outer loop
      vertex 1.80221 -17.1469 463.52
      vertex 5.32788 -16.3975 0
      vertex 5.32788 -16.3975 464.269
    endloop
  endfacet
  facet normal -0.743145 0.66913 0
    outer loop
      vertex -13.9486 10.1342 490.801
      vertex -11.5367 12.8128 0
      vertex -13.9486 10.1342 0
    endloop
  endfacet
  facet normal -0.743145 0.66913 0
    outer loop
      vertex -11.5367 12.8128 0
      vertex -13.9486 10.1342 490.801
      vertex -11.5367 12.8128 493.48
    endloop
  endfacet
  facet normal 0.743145 0.66913 0
    outer loop
      vertex 13.9486 10.1342 490.801
      vertex 11.5367 12.8128 0
      vertex 11.5367 12.8128 493.48
    endloop
  endfacet
  facet normal 0.743145 0.66913 0
    outer loop
      vertex 11.5367 12.8128 0
      vertex 13.9486 10.1342 490.801
      vertex 13.9486 10.1342 0
    endloop
  endfacet
  facet normal -0.951057 -0.309017 -0
    outer loop
      vertex -15.7508 -7.0127 473.654
      vertex -16.8646 -3.58468 0
      vertex -15.7508 -7.0127 0
    endloop
  endfacet
  facet normal -0.951057 -0.309017 0
    outer loop
      vertex -16.8646 -3.58468 0
      vertex -15.7508 -7.0127 473.654
      vertex -16.8646 -3.58468 477.082
    endloop
  endfacet
  facet normal -0.743145 -0.66913 -0
    outer loop
      vertex -11.5367 -12.8128 467.854
      vertex -13.9486 -10.1342 0
      vertex -11.5367 -12.8128 0
    endloop
  endfacet
  facet normal -0.743145 -0.66913 0
    outer loop
      vertex -13.9486 -10.1342 0
      vertex -11.5367 -12.8128 467.854
      vertex -13.9486 -10.1342 470.533
    endloop
  endfacet
  facet normal -0.207912 -0.978148 0
    outer loop
      vertex -5.32788 -16.3975 0
      vertex -1.80221 -17.1469 463.52
      vertex -5.32788 -16.3975 464.269
    endloop
  endfacet
  facet normal -0.207912 -0.978148 -0
    outer loop
      vertex -1.80221 -17.1469 463.52
      vertex -5.32788 -16.3975 0
      vertex -1.80221 -17.1469 0
    endloop
  endfacet
  facet normal -0.587785 -0.809017 0
    outer loop
      vertex -11.5367 -12.8128 0
      vertex -8.62069 -14.9315 465.735
      vertex -11.5367 -12.8128 467.854
    endloop
  endfacet
  facet normal -0.587785 -0.809017 -0
    outer loop
      vertex -8.62069 -14.9315 465.735
      vertex -11.5367 -12.8128 0
      vertex -8.62069 -14.9315 0
    endloop
  endfacet
  facet normal 0.406737 -0.913545 0
    outer loop
      vertex 8.62069 -14.9315 0
      vertex 5.32788 -16.3975 464.269
      vertex 5.32788 -16.3975 0
    endloop
  endfacet
  facet normal 0.406737 -0.913545 0
    outer loop
      vertex 5.32788 -16.3975 464.269
      vertex 8.62069 -14.9315 0
      vertex 8.62069 -14.9315 465.735
    endloop
  endfacet
  facet normal 0.743145 -0.66913 0
    outer loop
      vertex 11.5367 -12.8128 467.854
      vertex 13.9486 -10.1342 0
      vertex 13.9486 -10.1342 470.533
    endloop
  endfacet
  facet normal 0.743145 -0.66913 0
    outer loop
      vertex 13.9486 -10.1342 0
      vertex 11.5367 -12.8128 467.854
      vertex 11.5367 -12.8128 0
    endloop
  endfacet
  facet normal 0.951057 -0.309017 0
    outer loop
      vertex 15.7508 -7.0127 473.654
      vertex 16.8646 -3.58468 0
      vertex 16.8646 -3.58468 477.082
    endloop
  endfacet
  facet normal 0.951057 -0.309017 0
    outer loop
      vertex 16.8646 -3.58468 0
      vertex 15.7508 -7.0127 473.654
      vertex 15.7508 -7.0127 0
    endloop
  endfacet
  facet normal -0.951057 0.309017 0
    outer loop
      vertex -16.8646 3.58468 484.252
      vertex -15.7508 7.0127 0
      vertex -16.8646 3.58468 0
    endloop
  endfacet
  facet normal -0.951057 0.309017 0
    outer loop
      vertex -15.7508 7.0127 0
      vertex -16.8646 3.58468 484.252
      vertex -15.7508 7.0127 487.68
    endloop
  endfacet
  facet normal 0 0 -1
    outer loop
      vertex 15 0 0
      vertex 17.2414 0 0
      vertex 16.8646 -3.58468 0
    endloop
  endfacet
  facet normal 0 0 -1
    outer loop
      vertex 14.6722 -3.11868 0
      vertex 16.8646 -3.58468 0
      vertex 15.7508 -7.0127 0
    endloop
  endfacet
  facet normal 0 0 -1
    outer loop
      vertex 17.2414 0 0
      vertex 15 0 0
      vertex 16.8646 3.58468 0
    endloop
  endfacet
  facet normal 0 0 -1
    outer loop
      vertex 14.6722 3.11868 0
      vertex 16.8646 3.58468 0
      vertex 15 0 0
    endloop
  endfacet
  facet normal 0 0 -1
    outer loop
      vertex 16.8646 -3.58468 0
      vertex 14.6722 -3.11868 0
      vertex 15 0 0
    endloop
  endfacet
  facet normal 0 0 -1
    outer loop
      vertex 13.7032 -6.10105 0
      vertex 15.7508 -7.0127 0
      vertex 13.9486 -10.1342 0
    endloop
  endfacet
  facet normal 0 0 -1
    outer loop
      vertex 15.7508 -7.0127 0
      vertex 13.7032 -6.10105 0
      vertex 14.6722 -3.11868 0
    endloop
  endfacet
  facet normal 0 0 -1
    outer loop
      vertex 13.9486 -10.1342 0
      vertex 12.1353 -8.81678 0
      vertex 13.7032 -6.10105 0
    endloop
  endfacet
  facet normal 0 0 -1
    outer loop
      vertex 11.5367 -12.8128 0
      vertex 12.1353 -8.81678 0
      vertex 13.9486 -10.1342 0
    endloop
  endfacet
  facet normal 0 0 -1
    outer loop
      vertex 11.5367 -12.8128 0
      vertex 10.037 -11.1472 0
      vertex 12.1353 -8.81678 0
    endloop
  endfacet
  facet normal 0 0 -1
    outer loop
      vertex 8.62069 -14.9315 0
      vertex 10.037 -11.1472 0
      vertex 11.5367 -12.8128 0
    endloop
  endfacet
  facet normal 0 0 -1
    outer loop
      vertex 8.62069 -14.9315 0
      vertex 7.5 -12.9904 0
      vertex 10.037 -11.1472 0
    endloop
  endfacet
  facet normal 0 0 -1
    outer loop
      vertex 5.32788 -16.3975 0
      vertex 7.5 -12.9904 0
      vertex 8.62069 -14.9315 0
    endloop
  endfacet
  facet normal 0 0 -1
    outer loop
      vertex 5.32788 -16.3975 0
      vertex 4.63525 -14.2658 0
      vertex 7.5 -12.9904 0
    endloop
  endfacet
  facet normal 0 0 -1
    outer loop
      vertex 1.80221 -17.1469 0
      vertex 4.63525 -14.2658 0
      vertex 5.32788 -16.3975 0
    endloop
  endfacet
  facet normal 0 0 -1
    outer loop
      vertex 1.80221 -17.1469 0
      vertex 1.56793 -14.9178 0
      vertex 4.63525 -14.2658 0
    endloop
  endfacet
  facet normal 0 0 -1
    outer loop
      vertex 1.80221 -17.1469 0
      vertex -1.56793 -14.9178 0
      vertex 1.56793 -14.9178 0
    endloop
  endfacet
  facet normal 0 0 -1
    outer loop
      vertex -1.80221 -17.1469 0
      vertex -1.56793 -14.9178 0
      vertex 1.80221 -17.1469 0
    endloop
  endfacet
  facet normal 0 0 -1
    outer loop
      vertex -1.80221 -17.1469 0
      vertex -4.63525 -14.2658 0
      vertex -1.56793 -14.9178 0
    endloop
  endfacet
  facet normal 0 0 -1
    outer loop
      vertex -5.32788 -16.3975 0
      vertex -4.63525 -14.2658 0
      vertex -1.80221 -17.1469 0
    endloop
  endfacet
  facet normal 0 0 -1
    outer loop
      vertex -5.32788 -16.3975 0
      vertex -7.5 -12.9904 0
      vertex -4.63525 -14.2658 0
    endloop
  endfacet
  facet normal 0 0 -1
    outer loop
      vertex -8.62069 -14.9315 0
      vertex -7.5 -12.9904 0
      vertex -5.32788 -16.3975 0
    endloop
  endfacet
  facet normal 0 0 -1
    outer loop
      vertex -8.62069 -14.9315 0
      vertex -10.037 -11.1472 0
      vertex -7.5 -12.9904 0
    endloop
  endfacet
  facet normal 0 0 -1
    outer loop
      vertex -11.5367 -12.8128 0
      vertex -10.037 -11.1472 0
      vertex -8.62069 -14.9315 0
    endloop
  endfacet
  facet normal 0 0 -1
    outer loop
      vertex -11.5367 -12.8128 0
      vertex -12.1353 -8.81678 0
      vertex -10.037 -11.1472 0
    endloop
  endfacet
  facet normal 0 0 -1
    outer loop
      vertex -13.9486 -10.1342 0
      vertex -12.1353 -8.81678 0
      vertex -11.5367 -12.8128 0
    endloop
  endfacet
  facet normal -0 0 -1
    outer loop
      vertex -12.1353 -8.81678 0
      vertex -13.9486 -10.1342 0
      vertex -13.7032 -6.10105 0
    endloop
  endfacet
  facet normal 0 0 -1
    outer loop
      vertex -15.7508 -7.0127 0
      vertex -13.7032 -6.10105 0
      vertex -13.9486 -10.1342 0
    endloop
  endfacet
  facet normal -0 0 -1
    outer loop
      vertex -13.7032 -6.10105 0
      vertex -15.7508 -7.0127 0
      vertex -14.6722 -3.11868 0
    endloop
  endfacet
  facet normal 0 0 -1
    outer loop
      vertex -16.8646 -3.58468 0
      vertex -14.6722 -3.11868 0
      vertex -15.7508 -7.0127 0
    endloop
  endfacet
  facet normal -0 0 -1
    outer loop
      vertex 16.8646 3.58468 0
      vertex 14.6722 3.11868 0
      vertex 15.7508 7.0127 0
    endloop
  endfacet
  facet normal 0 0 -1
    outer loop
      vertex 13.7032 6.10105 0
      vertex 15.7508 7.0127 0
      vertex 14.6722 3.11868 0
    endloop
  endfacet
  facet normal -0 0 -1
    outer loop
      vertex 15.7508 7.0127 0
      vertex 13.7032 6.10105 0
      vertex 13.9486 10.1342 0
    endloop
  endfacet
  facet normal 0 0 -1
    outer loop
      vertex 12.1353 8.81678 0
      vertex 13.9486 10.1342 0
      vertex 13.7032 6.10105 0
    endloop
  endfacet
  facet normal 0 0 -1
    outer loop
      vertex 12.1353 8.81678 0
      vertex 11.5367 12.8128 0
      vertex 13.9486 10.1342 0
    endloop
  endfacet
  facet normal 0 0 -1
    outer loop
      vertex 10.037 11.1472 0
      vertex 11.5367 12.8128 0
      vertex 12.1353 8.81678 0
    endloop
  endfacet
  facet normal 0 0 -1
    outer loop
      vertex 10.037 11.1472 0
      vertex 8.62069 14.9315 0
      vertex 11.5367 12.8128 0
    endloop
  endfacet
  facet normal 0 0 -1
    outer loop
      vertex 7.5 12.9904 0
      vertex 8.62069 14.9315 0
      vertex 10.037 11.1472 0
    endloop
  endfacet
  facet normal 0 0 -1
    outer loop
      vertex 7.5 12.9904 0
      vertex 5.32788 16.3975 0
      vertex 8.62069 14.9315 0
    endloop
  endfacet
  facet normal 0 0 -1
    outer loop
      vertex 4.63525 14.2658 0
      vertex 5.32788 16.3975 0
      vertex 7.5 12.9904 0
    endloop
  endfacet
  facet normal 0 0 -1
    outer loop
      vertex 4.63525 14.2658 0
      vertex 1.80221 17.1469 0
      vertex 5.32788 16.3975 0
    endloop
  endfacet
  facet normal 0 0 -1
    outer loop
      vertex 1.56793 14.9178 0
      vertex 1.80221 17.1469 0
      vertex 4.63525 14.2658 0
    endloop
  endfacet
  facet normal 0 0 -1
    outer loop
      vertex -1.56793 14.9178 0
      vertex 1.80221 17.1469 0
      vertex 1.56793 14.9178 0
    endloop
  endfacet
  facet normal 0 0 -1
    outer loop
      vertex -1.56793 14.9178 0
      vertex -1.80221 17.1469 0
      vertex 1.80221 17.1469 0
    endloop
  endfacet
  facet normal 0 0 -1
    outer loop
      vertex -4.63525 14.2658 0
      vertex -1.80221 17.1469 0
      vertex -1.56793 14.9178 0
    endloop
  endfacet
  facet normal 0 0 -1
    outer loop
      vertex -4.63525 14.2658 0
      vertex -5.32788 16.3975 0
      vertex -1.80221 17.1469 0
    endloop
  endfacet
  facet normal 0 0 -1
    outer loop
      vertex -7.5 12.9904 0
      vertex -5.32788 16.3975 0
      vertex -4.63525 14.2658 0
    endloop
  endfacet
  facet normal 0 0 -1
    outer loop
      vertex -7.5 12.9904 0
      vertex -8.62069 14.9315 0
      vertex -5.32788 16.3975 0
    endloop
  endfacet
  facet normal 0 0 -1
    outer loop
      vertex -10.037 11.1472 0
      vertex -8.62069 14.9315 0
      vertex -7.5 12.9904 0
    endloop
  endfacet
  facet normal 0 0 -1
    outer loop
      vertex -10.037 11.1472 0
      vertex -11.5367 12.8128 0
      vertex -8.62069 14.9315 0
    endloop
  endfacet
  facet normal 0 0 -1
    outer loop
      vertex -12.1353 8.81678 0
      vertex -11.5367 12.8128 0
      vertex -10.037 11.1472 0
    endloop
  endfacet
  facet normal 0 0 -1
    outer loop
      vertex -13.9486 10.1342 0
      vertex -12.1353 8.81678 0
      vertex -13.7032 6.10105 0
    endloop
  endfacet
  facet normal 0 0 -1
    outer loop
      vertex -12.1353 8.81678 0
      vertex -13.9486 10.1342 0
      vertex -11.5367 12.8128 0
    endloop
  endfacet
  facet normal 0 0 -1
    outer loop
      vertex -15.7508 7.0127 0
      vertex -13.7032 6.10105 0
      vertex -14.6722 3.11868 0
    endloop
  endfacet
  facet normal 0 0 -1
    outer loop
      vertex -16.8646 3.58468 0
      vertex -14.6722 3.11868 0
      vertex -15 0 0
    endloop
  endfacet
  facet normal -0 0 -1
    outer loop
      vertex -14.6722 -3.11868 0
      vertex -16.8646 -3.58468 0
      vertex -15 0 0
    endloop
  endfacet
  facet normal 0 0 -1
    outer loop
      vertex -13.7032 6.10105 0
      vertex -15.7508 7.0127 0
      vertex -13.9486 10.1342 0
    endloop
  endfacet
  facet normal 0 0 -1
    outer loop
      vertex -17.2414 0 0
      vertex -15 0 0
      vertex -16.8646 -3.58468 0
    endloop
  endfacet
  facet normal 0 0 -1
    outer loop
      vertex -14.6722 3.11868 0
      vertex -16.8646 3.58468 0
      vertex -15.7508 7.0127 0
    endloop
  endfacet
  facet normal 0 0 -1
    outer loop
      vertex -15 0 0
      vertex -17.2414 0 0
      vertex -16.8646 3.58468 0
    endloop
  endfacet
  facet normal -0.587785 0.809017 0
    outer loop
      vertex -8.62069 14.9315 0
      vertex -11.5367 12.8128 493.48
      vertex -8.62069 14.9315 495.598
    endloop
  endfacet
  facet normal -0.587785 0.809017 0
    outer loop
      vertex -11.5367 12.8128 493.48
      vertex -8.62069 14.9315 0
      vertex -11.5367 12.8128 0
    endloop
  endfacet
  facet normal -0.406737 0.913545 0
    outer loop
      vertex -5.32788 16.3975 0
      vertex -8.62069 14.9315 495.598
      vertex -5.32788 16.3975 497.064
    endloop
  endfacet
  facet normal -0.406737 0.913545 0
    outer loop
      vertex -8.62069 14.9315 495.598
      vertex -5.32788 16.3975 0
      vertex -8.62069 14.9315 0
    endloop
  endfacet
  facet normal -0.866025 0.5 0
    outer loop
      vertex -15.7508 7.0127 487.68
      vertex -13.9486 10.1342 0
      vertex -15.7508 7.0127 0
    endloop
  endfacet
  facet normal -0.866025 0.5 0
    outer loop
      vertex -13.9486 10.1342 0
      vertex -15.7508 7.0127 487.68
      vertex -13.9486 10.1342 490.801
    endloop
  endfacet
  facet normal -0.994522 0.104529 0
    outer loop
      vertex -17.2414 0 480.667
      vertex -16.8646 3.58468 0
      vertex -17.2414 0 0
    endloop
  endfacet
  facet normal -0.994522 0.104529 0
    outer loop
      vertex -16.8646 3.58468 0
      vertex -17.2414 0 480.667
      vertex -16.8646 3.58468 484.252
    endloop
  endfacet
  facet normal 0.207912 0.978148 0
    outer loop
      vertex 1.80221 17.1469 0
      vertex 5.32788 16.3975 497.064
      vertex 5.32788 16.3975 0
    endloop
  endfacet
  facet normal 0.207912 0.978148 0
    outer loop
      vertex 5.32788 16.3975 497.064
      vertex 1.80221 17.1469 0
      vertex 1.80221 17.1469 497.814
    endloop
  endfacet
  facet normal 0 1 -0
    outer loop
      vertex 1.80221 17.1469 0
      vertex -1.80221 17.1469 497.814
      vertex 1.80221 17.1469 497.814
    endloop
  endfacet
  facet normal 0 1 0
    outer loop
      vertex -1.80221 17.1469 497.814
      vertex 1.80221 17.1469 0
      vertex -1.80221 17.1469 0
    endloop
  endfacet
  facet normal 0.587785 0.809017 0
    outer loop
      vertex 8.62069 14.9315 0
      vertex 11.5367 12.8128 493.48
      vertex 11.5367 12.8128 0
    endloop
  endfacet
  facet normal 0.587785 0.809017 0
    outer loop
      vertex 11.5367 12.8128 493.48
      vertex 8.62069 14.9315 0
      vertex 8.62069 14.9315 495.598
    endloop
  endfacet
  facet normal 0.866025 0.5 0
    outer loop
      vertex 15.7508 7.0127 487.68
      vertex 13.9486 10.1342 0
      vertex 13.9486 10.1342 490.801
    endloop
  endfacet
  facet normal 0.866025 0.5 0
    outer loop
      vertex 13.9486 10.1342 0
      vertex 15.7508 7.0127 487.68
      vertex 15.7508 7.0127 0
    endloop
  endfacet
  facet normal -0.866025 -0.5 -0
    outer loop
      vertex -13.9486 -10.1342 470.533
      vertex -15.7508 -7.0127 0
      vertex -13.9486 -10.1342 0
    endloop
  endfacet
  facet normal -0.866025 -0.5 0
    outer loop
      vertex -15.7508 -7.0127 0
      vertex -13.9486 -10.1342 470.533
      vertex -15.7508 -7.0127 473.654
    endloop
  endfacet
  facet normal -0.406737 -0.913545 0
    outer loop
      vertex -8.62069 -14.9315 0
      vertex -5.32788 -16.3975 464.269
      vertex -8.62069 -14.9315 465.735
    endloop
  endfacet
  facet normal -0.406737 -0.913545 -0
    outer loop
      vertex -5.32788 -16.3975 464.269
      vertex -8.62069 -14.9315 0
      vertex -5.32788 -16.3975 0
    endloop
  endfacet
  facet normal 0.587785 -0.809017 0
    outer loop
      vertex 11.5367 -12.8128 0
      vertex 8.62069 -14.9315 465.735
      vertex 8.62069 -14.9315 0
    endloop
  endfacet
  facet normal 0.587785 -0.809017 0
    outer loop
      vertex 8.62069 -14.9315 465.735
      vertex 11.5367 -12.8128 0
      vertex 11.5367 -12.8128 467.854
    endloop
  endfacet
  facet normal 0.866025 -0.5 0
    outer loop
      vertex 13.9486 -10.1342 470.533
      vertex 15.7508 -7.0127 0
      vertex 15.7508 -7.0127 473.654
    endloop
  endfacet
  facet normal 0.866025 -0.5 0
    outer loop
      vertex 15.7508 -7.0127 0
      vertex 13.9486 -10.1342 470.533
      vertex 13.9486 -10.1342 0
    endloop
  endfacet
  facet normal 0.994522 -0.104529 0
    outer loop
      vertex 16.8646 -3.58468 477.082
      vertex 17.2414 0 0
      vertex 17.2414 0 480.667
    endloop
  endfacet
  facet normal 0.994522 -0.104529 0
    outer loop
      vertex 17.2414 0 0
      vertex 16.8646 -3.58468 477.082
      vertex 16.8646 -3.58468 0
    endloop
  endfacet
  facet normal -0.951057 -0.309017 -0
    outer loop
      vertex 14.6722 3.11868 483.786
      vertex 13.7032 6.10105 0
      vertex 14.6722 3.11868 0
    endloop
  endfacet
  facet normal -0.951057 -0.309017 0
    outer loop
      vertex 13.7032 6.10105 0
      vertex 14.6722 3.11868 483.786
      vertex 13.7032 6.10105 486.768
    endloop
  endfacet
  facet normal -0.994522 -0.104529 -0
    outer loop
      vertex 15 0 480.667
      vertex 14.6722 3.11868 0
      vertex 15 0 0
    endloop
  endfacet
  facet normal -0.994522 -0.104529 0
    outer loop
      vertex 14.6722 3.11868 0
      vertex 15 0 480.667
      vertex 14.6722 3.11868 483.786
    endloop
  endfacet
  facet normal 0.207912 -0.978148 0
    outer loop
      vertex -1.56793 14.9178 0
      vertex -4.63525 14.2658 494.933
      vertex -4.63525 14.2658 0
    endloop
  endfacet
  facet normal 0.207912 -0.978148 0
    outer loop
      vertex -4.63525 14.2658 494.933
      vertex -1.56793 14.9178 0
      vertex -1.56793 14.9178 495.585
    endloop
  endfacet
  facet normal 0 1 -0
    outer loop
      vertex 1.56793 -14.9178 0
      vertex -1.56793 -14.9178 465.749
      vertex 1.56793 -14.9178 465.749
    endloop
  endfacet
  facet normal 0 1 0
    outer loop
      vertex -1.56793 -14.9178 465.749
      vertex 1.56793 -14.9178 0
      vertex -1.56793 -14.9178 0
    endloop
  endfacet
  facet normal -0.406737 -0.913545 0
    outer loop
      vertex 4.63525 14.2658 0
      vertex 7.5 12.9904 493.657
      vertex 4.63525 14.2658 494.933
    endloop
  endfacet
  facet normal -0.406737 -0.913545 -0
    outer loop
      vertex 7.5 12.9904 493.657
      vertex 4.63525 14.2658 0
      vertex 7.5 12.9904 0
    endloop
  endfacet
  facet normal -0.207912 0.978148 0
    outer loop
      vertex 4.63525 -14.2658 0
      vertex 1.56793 -14.9178 465.749
      vertex 4.63525 -14.2658 466.401
    endloop
  endfacet
  facet normal -0.207912 0.978148 0
    outer loop
      vertex 1.56793 -14.9178 465.749
      vertex 4.63525 -14.2658 0
      vertex 1.56793 -14.9178 0
    endloop
  endfacet
  facet normal 0.743145 -0.669131 0
    outer loop
      vertex -12.1353 8.81678 489.484
      vertex -10.037 11.1472 0
      vertex -10.037 11.1472 491.814
    endloop
  endfacet
  facet normal 0.743145 -0.669131 0
    outer loop
      vertex -10.037 11.1472 0
      vertex -12.1353 8.81678 489.484
      vertex -12.1353 8.81678 0
    endloop
  endfacet
  facet normal -0.207912 -0.978148 0
    outer loop
      vertex 1.56793 14.9178 0
      vertex 4.63525 14.2658 494.933
      vertex 1.56793 14.9178 495.585
    endloop
  endfacet
  facet normal -0.207912 -0.978148 -0
    outer loop
      vertex 4.63525 14.2658 494.933
      vertex 1.56793 14.9178 0
      vertex 4.63525 14.2658 0
    endloop
  endfacet
  facet normal -0.743145 -0.669131 -0
    outer loop
      vertex 12.1353 8.81678 489.484
      vertex 10.037 11.1472 0
      vertex 12.1353 8.81678 0
    endloop
  endfacet
  facet normal -0.743145 -0.669131 0
    outer loop
      vertex 10.037 11.1472 0
      vertex 12.1353 8.81678 489.484
      vertex 10.037 11.1472 491.814
    endloop
  endfacet
  facet normal 0.951057 0.309017 0
    outer loop
      vertex -13.7032 -6.10105 474.566
      vertex -14.6722 -3.11868 0
      vertex -14.6722 -3.11868 477.548
    endloop
  endfacet
  facet normal 0.951057 0.309017 0
    outer loop
      vertex -14.6722 -3.11868 0
      vertex -13.7032 -6.10105 474.566
      vertex -13.7032 -6.10105 0
    endloop
  endfacet
  facet normal 0.743145 0.669131 0
    outer loop
      vertex -10.037 -11.1472 469.52
      vertex -12.1353 -8.81678 0
      vertex -12.1353 -8.81678 471.85
    endloop
  endfacet
  facet normal 0.743145 0.669131 0
    outer loop
      vertex -12.1353 -8.81678 0
      vertex -10.037 -11.1472 469.52
      vertex -10.037 -11.1472 0
    endloop
  endfacet
  facet normal 0.207912 0.978148 0
    outer loop
      vertex -4.63525 -14.2658 0
      vertex -1.56793 -14.9178 465.749
      vertex -1.56793 -14.9178 0
    endloop
  endfacet
  facet normal 0.207912 0.978148 0
    outer loop
      vertex -1.56793 -14.9178 465.749
      vertex -4.63525 -14.2658 0
      vertex -4.63525 -14.2658 466.401
    endloop
  endfacet
  facet normal 0.587785 0.809017 0
    outer loop
      vertex -10.037 -11.1472 0
      vertex -7.5 -12.9904 467.677
      vertex -7.5 -12.9904 0
    endloop
  endfacet
  facet normal 0.587785 0.809017 0
    outer loop
      vertex -7.5 -12.9904 467.677
      vertex -10.037 -11.1472 0
      vertex -10.037 -11.1472 469.52
    endloop
  endfacet
  facet normal -0.406737 0.913545 0
    outer loop
      vertex 7.5 -12.9904 0
      vertex 4.63525 -14.2658 466.401
      vertex 7.5 -12.9904 467.677
    endloop
  endfacet
  facet normal -0.406737 0.913545 0
    outer loop
      vertex 4.63525 -14.2658 466.401
      vertex 7.5 -12.9904 0
      vertex 4.63525 -14.2658 0
    endloop
  endfacet
  facet normal -0.743145 0.669131 0
    outer loop
      vertex 10.037 -11.1472 469.52
      vertex 12.1353 -8.81678 0
      vertex 10.037 -11.1472 0
    endloop
  endfacet
  facet normal -0.743145 0.669131 0
    outer loop
      vertex 12.1353 -8.81678 0
      vertex 10.037 -11.1472 469.52
      vertex 12.1353 -8.81678 471.85
    endloop
  endfacet
  facet normal -0.951057 0.309017 0
    outer loop
      vertex 13.7032 -6.10105 474.566
      vertex 14.6722 -3.11868 0
      vertex 13.7032 -6.10105 0
    endloop
  endfacet
  facet normal -0.951057 0.309017 0
    outer loop
      vertex 14.6722 -3.11868 0
      vertex 13.7032 -6.10105 474.566
      vertex 14.6722 -3.11868 477.548
    endloop
  endfacet
  facet normal 0.951057 -0.309017 0
    outer loop
      vertex -14.6722 3.11868 483.786
      vertex -13.7032 6.10105 0
      vertex -13.7032 6.10105 486.768
    endloop
  endfacet
  facet normal 0.951057 -0.309017 0
    outer loop
      vertex -13.7032 6.10105 0
      vertex -14.6722 3.11868 483.786
      vertex -14.6722 3.11868 0
    endloop
  endfacet
  facet normal 0.587785 -0.809017 0
    outer loop
      vertex -7.5 12.9904 0
      vertex -10.037 11.1472 491.814
      vertex -10.037 11.1472 0
    endloop
  endfacet
  facet normal 0.587785 -0.809017 0
    outer loop
      vertex -10.037 11.1472 491.814
      vertex -7.5 12.9904 0
      vertex -7.5 12.9904 493.657
    endloop
  endfacet
  facet normal 0.406737 -0.913545 0
    outer loop
      vertex -4.63525 14.2658 0
      vertex -7.5 12.9904 493.657
      vertex -7.5 12.9904 0
    endloop
  endfacet
  facet normal 0.406737 -0.913545 0
    outer loop
      vertex -7.5 12.9904 493.657
      vertex -4.63525 14.2658 0
      vertex -4.63525 14.2658 494.933
    endloop
  endfacet
  facet normal 0.866025 -0.5 0
    outer loop
      vertex -13.7032 6.10105 486.768
      vertex -12.1353 8.81678 0
      vertex -12.1353 8.81678 489.484
    endloop
  endfacet
  facet normal 0.866025 -0.5 0
    outer loop
      vertex -12.1353 8.81678 0
      vertex -13.7032 6.10105 486.768
      vertex -13.7032 6.10105 0
    endloop
  endfacet
  facet normal 0.994522 -0.104529 0
    outer loop
      vertex -15 0 480.667
      vertex -14.6722 3.11868 0
      vertex -14.6722 3.11868 483.786
    endloop
  endfacet
  facet normal 0.994522 -0.104529 0
    outer loop
      vertex -14.6722 3.11868 0
      vertex -15 0 480.667
      vertex -15 0 0
    endloop
  endfacet
  facet normal 0 -1 0
    outer loop
      vertex -1.56793 14.9178 0
      vertex 1.56793 14.9178 495.585
      vertex -1.56793 14.9178 495.585
    endloop
  endfacet
  facet normal 0 -1 -0
    outer loop
      vertex 1.56793 14.9178 495.585
      vertex -1.56793 14.9178 0
      vertex 1.56793 14.9178 0
    endloop
  endfacet
  facet normal -0.587785 -0.809017 0
    outer loop
      vertex 7.5 12.9904 0
      vertex 10.037 11.1472 491.814
      vertex 7.5 12.9904 493.657
    endloop
  endfacet
  facet normal -0.587785 -0.809017 -0
    outer loop
      vertex 10.037 11.1472 491.814
      vertex 7.5 12.9904 0
      vertex 10.037 11.1472 0
    endloop
  endfacet
  facet normal -0.866025 -0.5 -0
    outer loop
      vertex 13.7032 6.10105 486.768
      vertex 12.1353 8.81678 0
      vertex 13.7032 6.10105 0
    endloop
  endfacet
  facet normal -0.866025 -0.5 0
    outer loop
      vertex 12.1353 8.81678 0
      vertex 13.7032 6.10105 486.768
      vertex 12.1353 8.81678 489.484
    endloop
  endfacet
  facet normal 0.866025 0.5 0
    outer loop
      vertex -12.1353 -8.81678 471.85
      vertex -13.7032 -6.10105 0
      vertex -13.7032 -6.10105 474.566
    endloop
  endfacet
  facet normal 0.866025 0.5 0
    outer loop
      vertex -13.7032 -6.10105 0
      vertex -12.1353 -8.81678 471.85
      vertex -12.1353 -8.81678 0
    endloop
  endfacet
  facet normal 0.406737 0.913545 0
    outer loop
      vertex -7.5 -12.9904 0
      vertex -4.63525 -14.2658 466.401
      vertex -4.63525 -14.2658 0
    endloop
  endfacet
  facet normal 0.406737 0.913545 0
    outer loop
      vertex -4.63525 -14.2658 466.401
      vertex -7.5 -12.9904 0
      vertex -7.5 -12.9904 467.677
    endloop
  endfacet
  facet normal -0.587785 0.809017 0
    outer loop
      vertex 10.037 -11.1472 0
      vertex 7.5 -12.9904 467.677
      vertex 10.037 -11.1472 469.52
    endloop
  endfacet
  facet normal -0.587785 0.809017 0
    outer loop
      vertex 7.5 -12.9904 467.677
      vertex 10.037 -11.1472 0
      vertex 7.5 -12.9904 0
    endloop
  endfacet
  facet normal -0.866025 0.5 0
    outer loop
      vertex 12.1353 -8.81678 471.85
      vertex 13.7032 -6.10105 0
      vertex 12.1353 -8.81678 0
    endloop
  endfacet
  facet normal -0.866025 0.5 0
    outer loop
      vertex 13.7032 -6.10105 0
      vertex 12.1353 -8.81678 471.85
      vertex 13.7032 -6.10105 474.566
    endloop
  endfacet
  facet normal -0.994522 0.104529 0
    outer loop
      vertex 14.6722 -3.11868 477.548
      vertex 15 0 0
      vertex 14.6722 -3.11868 0
    endloop
  endfacet
  facet normal -0.994522 0.104529 0
    outer loop
      vertex 15 0 0
      vertex 14.6722 -3.11868 477.548
      vertex 15 0 480.667
    endloop
  endfacet
  facet normal 0.994522 0.104529 0
    outer loop
      vertex -14.6722 -3.11868 477.548
      vertex -15 0 0
      vertex -15 0 480.667
    endloop
  endfacet
  facet normal 0.994522 0.104529 0
    outer loop
      vertex -15 0 0
      vertex -14.6722 -3.11868 477.548
      vertex -14.6722 -3.11868 0
    endloop
  endfacet
  facet normal 2.24187e-006 -0.707106 0.707108
    outer loop
      vertex -1.56793 14.9178 495.585
      vertex -1.80221 17.1469 497.814
      vertex -5.32788 16.3975 497.064
    endloop
  endfacet
  facet normal 0 -0.707106 0.707108
    outer loop
      vertex -1.80221 17.1469 497.814
      vertex -1.56793 14.9178 495.585
      vertex 1.80221 17.1469 497.814
    endloop
  endfacet
  facet normal -1.3528e-006 -0.707108 0.707106
    outer loop
      vertex -4.63525 14.2658 494.933
      vertex -5.32788 16.3975 497.064
      vertex -8.62069 14.9315 495.598
    endloop
  endfacet
  facet normal 0 -0.707106 0.707108
    outer loop
      vertex 1.56793 14.9178 495.585
      vertex 1.80221 17.1469 497.814
      vertex -1.56793 14.9178 495.585
    endloop
  endfacet
  facet normal -2.24187e-006 -0.707106 0.707108
    outer loop
      vertex 1.80221 17.1469 497.814
      vertex 1.56793 14.9178 495.585
      vertex 5.32788 16.3975 497.064
    endloop
  endfacet
  facet normal 9.31426e-007 -0.707107 0.707106
    outer loop
      vertex -5.32788 16.3975 497.064
      vertex -4.63525 14.2658 494.933
      vertex -1.56793 14.9178 495.585
    endloop
  endfacet
  facet normal -1.76569e-006 -0.707109 0.707105
    outer loop
      vertex -8.62069 14.9315 495.598
      vertex -7.5 12.9904 493.657
      vertex -4.63525 14.2658 494.933
    endloop
  endfacet
  facet normal 3.24442e-006 -0.707108 0.707106
    outer loop
      vertex -11.5367 12.8128 493.48
      vertex -7.5 12.9904 493.657
      vertex -8.62069 14.9315 495.598
    endloop
  endfacet
  facet normal 3.2415e-006 -0.707108 0.707106
    outer loop
      vertex -11.5367 12.8128 493.48
      vertex -10.037 11.1472 491.814
      vertex -7.5 12.9904 493.657
    endloop
  endfacet
  facet normal 1.63418e-006 -0.707108 0.707105
    outer loop
      vertex -13.9486 10.1342 490.801
      vertex -10.037 11.1472 491.814
      vertex -11.5367 12.8128 493.48
    endloop
  endfacet
  facet normal 4.91604e-008 -0.707105 0.707108
    outer loop
      vertex -13.9486 10.1342 490.801
      vertex -12.1353 8.81678 489.484
      vertex -10.037 11.1472 491.814
    endloop
  endfacet
  facet normal -7.97928e-007 -0.707106 0.707108
    outer loop
      vertex -15.7508 7.0127 487.68
      vertex -12.1353 8.81678 489.484
      vertex -13.9486 10.1342 490.801
    endloop
  endfacet
  facet normal 2.61991e-007 -0.707107 0.707107
    outer loop
      vertex -15.7508 7.0127 487.68
      vertex -13.7032 6.10105 486.768
      vertex -12.1353 8.81678 489.484
    endloop
  endfacet
  facet normal 8.99836e-007 -0.707106 0.707107
    outer loop
      vertex -16.8646 3.58468 484.252
      vertex -13.7032 6.10105 486.768
      vertex -15.7508 7.0127 487.68
    endloop
  endfacet
  facet normal 6.95904e-006 -0.70711 0.707104
    outer loop
      vertex -16.8646 3.58468 484.252
      vertex -14.6722 3.11868 483.786
      vertex -13.7032 6.10105 486.768
    endloop
  endfacet
  facet normal 8.00598e-006 -0.707107 0.707106
    outer loop
      vertex -17.2414 0 480.667
      vertex -14.6722 3.11868 483.786
      vertex -16.8646 3.58468 484.252
    endloop
  endfacet
  facet normal 0 -0.707104 0.707109
    outer loop
      vertex -17.2414 0 480.667
      vertex -15 0 480.667
      vertex -14.6722 3.11868 483.786
    endloop
  endfacet
  facet normal 0 -0.707108 0.707106
    outer loop
      vertex -17.2414 0 480.667
      vertex -14.6722 -3.11868 477.548
      vertex -15 0 480.667
    endloop
  endfacet
  facet normal 1.62166e-006 -0.707107 0.707107
    outer loop
      vertex -16.8646 -3.58468 477.082
      vertex -14.6722 -3.11868 477.548
      vertex -17.2414 0 480.667
    endloop
  endfacet
  facet normal 2.24779e-006 -0.707108 0.707105
    outer loop
      vertex -16.8646 -3.58468 477.082
      vertex -13.7032 -6.10105 474.566
      vertex -14.6722 -3.11868 477.548
    endloop
  endfacet
  facet normal 8.30705e-006 -0.707105 0.707109
    outer loop
      vertex -15.7508 -7.0127 473.654
      vertex -13.7032 -6.10105 474.566
      vertex -16.8646 -3.58468 477.082
    endloop
  endfacet
  facet normal 8.12174e-006 -0.707104 0.707109
    outer loop
      vertex -15.7508 -7.0127 473.654
      vertex -12.1353 -8.81678 471.85
      vertex -13.7032 -6.10105 474.566
    endloop
  endfacet
  facet normal 4.33629e-006 -0.707108 0.707105
    outer loop
      vertex -13.9486 -10.1342 470.533
      vertex -12.1353 -8.81678 471.85
      vertex -15.7508 -7.0127 473.654
    endloop
  endfacet
  facet normal -4.91604e-008 -0.707105 0.707108
    outer loop
      vertex -13.9486 -10.1342 470.533
      vertex -10.037 -11.1472 469.52
      vertex -12.1353 -8.81678 471.85
    endloop
  endfacet
  facet normal -1.63418e-006 -0.707108 0.707105
    outer loop
      vertex -11.5367 -12.8128 467.854
      vertex -10.037 -11.1472 469.52
      vertex -13.9486 -10.1342 470.533
    endloop
  endfacet
  facet normal -3.24151e-006 -0.707108 0.707106
    outer loop
      vertex -11.5367 -12.8128 467.854
      vertex -7.5 -12.9904 467.677
      vertex -10.037 -11.1472 469.52
    endloop
  endfacet
  facet normal -3.24442e-006 -0.707108 0.707106
    outer loop
      vertex -8.62069 -14.9315 465.735
      vertex -7.5 -12.9904 467.677
      vertex -11.5367 -12.8128 467.854
    endloop
  endfacet
  facet normal 1.76569e-006 -0.707109 0.707105
    outer loop
      vertex -7.5 -12.9904 467.677
      vertex -8.62069 -14.9315 465.735
      vertex -4.63525 -14.2658 466.401
    endloop
  endfacet
  facet normal 1.0813e-006 -0.707103 0.707111
    outer loop
      vertex -4.63525 -14.2658 466.401
      vertex -5.32788 -16.3975 464.269
      vertex -1.56793 -14.9178 465.749
    endloop
  endfacet
  facet normal -4.34912e-007 -0.707102 0.707111
    outer loop
      vertex -5.32788 -16.3975 464.269
      vertex -4.63525 -14.2658 466.401
      vertex -8.62069 -14.9315 465.735
    endloop
  endfacet
  facet normal -9.31426e-007 -0.707107 0.707106
    outer loop
      vertex 4.63525 14.2658 494.933
      vertex 5.32788 16.3975 497.064
      vertex 1.56793 14.9178 495.585
    endloop
  endfacet
  facet normal 1.3528e-006 -0.707108 0.707106
    outer loop
      vertex 5.32788 16.3975 497.064
      vertex 4.63525 14.2658 494.933
      vertex 8.62069 14.9315 495.598
    endloop
  endfacet
  facet normal 1.76569e-006 -0.707109 0.707105
    outer loop
      vertex 7.5 12.9904 493.657
      vertex 8.62069 14.9315 495.598
      vertex 4.63525 14.2658 494.933
    endloop
  endfacet
  facet normal -3.24442e-006 -0.707108 0.707106
    outer loop
      vertex 7.5 12.9904 493.657
      vertex 11.5367 12.8128 493.48
      vertex 8.62069 14.9315 495.598
    endloop
  endfacet
  facet normal -3.24151e-006 -0.707108 0.707106
    outer loop
      vertex 10.037 11.1472 491.814
      vertex 11.5367 12.8128 493.48
      vertex 7.5 12.9904 493.657
    endloop
  endfacet
  facet normal -1.63418e-006 -0.707108 0.707105
    outer loop
      vertex 10.037 11.1472 491.814
      vertex 13.9486 10.1342 490.801
      vertex 11.5367 12.8128 493.48
    endloop
  endfacet
  facet normal -4.91604e-008 -0.707105 0.707108
    outer loop
      vertex 12.1353 8.81678 489.484
      vertex 13.9486 10.1342 490.801
      vertex 10.037 11.1472 491.814
    endloop
  endfacet
  facet normal 7.97928e-007 -0.707106 0.707108
    outer loop
      vertex 12.1353 8.81678 489.484
      vertex 15.7508 7.0127 487.68
      vertex 13.9486 10.1342 490.801
    endloop
  endfacet
  facet normal -2.61991e-007 -0.707107 0.707107
    outer loop
      vertex 13.7032 6.10105 486.768
      vertex 15.7508 7.0127 487.68
      vertex 12.1353 8.81678 489.484
    endloop
  endfacet
  facet normal -8.99836e-007 -0.707106 0.707107
    outer loop
      vertex 13.7032 6.10105 486.768
      vertex 16.8646 3.58468 484.252
      vertex 15.7508 7.0127 487.68
    endloop
  endfacet
  facet normal -6.95904e-006 -0.70711 0.707104
    outer loop
      vertex 14.6722 3.11868 483.786
      vertex 16.8646 3.58468 484.252
      vertex 13.7032 6.10105 486.768
    endloop
  endfacet
  facet normal -9.20231e-006 -0.707105 0.707109
    outer loop
      vertex 15 0 480.667
      vertex 16.8646 3.58468 484.252
      vertex 14.6722 3.11868 483.786
    endloop
  endfacet
  facet normal 0 -0.707107 0.707106
    outer loop
      vertex 15 0 480.667
      vertex 17.2414 0 480.667
      vertex 16.8646 3.58468 484.252
    endloop
  endfacet
  facet normal 0 -0.707108 0.707106
    outer loop
      vertex 14.6722 -3.11868 477.548
      vertex 17.2414 0 480.667
      vertex 15 0 480.667
    endloop
  endfacet
  facet normal -1.62166e-006 -0.707107 0.707107
    outer loop
      vertex 14.6722 -3.11868 477.548
      vertex 16.8646 -3.58468 477.082
      vertex 17.2414 0 480.667
    endloop
  endfacet
  facet normal -2.24779e-006 -0.707108 0.707105
    outer loop
      vertex 13.7032 -6.10105 474.566
      vertex 16.8646 -3.58468 477.082
      vertex 14.6722 -3.11868 477.548
    endloop
  endfacet
  facet normal -8.30705e-006 -0.707105 0.707109
    outer loop
      vertex 13.7032 -6.10105 474.566
      vertex 15.7508 -7.0127 473.654
      vertex 16.8646 -3.58468 477.082
    endloop
  endfacet
  facet normal -8.12174e-006 -0.707104 0.707109
    outer loop
      vertex 12.1353 -8.81678 471.85
      vertex 15.7508 -7.0127 473.654
      vertex 13.7032 -6.10105 474.566
    endloop
  endfacet
  facet normal -4.33629e-006 -0.707108 0.707105
    outer loop
      vertex 12.1353 -8.81678 471.85
      vertex 13.9486 -10.1342 470.533
      vertex 15.7508 -7.0127 473.654
    endloop
  endfacet
  facet normal 4.91604e-008 -0.707105 0.707108
    outer loop
      vertex 10.037 -11.1472 469.52
      vertex 13.9486 -10.1342 470.533
      vertex 12.1353 -8.81678 471.85
    endloop
  endfacet
  facet normal 1.63418e-006 -0.707108 0.707105
    outer loop
      vertex 10.037 -11.1472 469.52
      vertex 11.5367 -12.8128 467.854
      vertex 13.9486 -10.1342 470.533
    endloop
  endfacet
  facet normal 3.24151e-006 -0.707108 0.707106
    outer loop
      vertex 7.5 -12.9904 467.677
      vertex 11.5367 -12.8128 467.854
      vertex 10.037 -11.1472 469.52
    endloop
  endfacet
  facet normal -1.76569e-006 -0.707109 0.707105
    outer loop
      vertex 8.62069 -14.9315 465.735
      vertex 7.5 -12.9904 467.677
      vertex 4.63525 -14.2658 466.401
    endloop
  endfacet
  facet normal -1.0813e-006 -0.707103 0.707111
    outer loop
      vertex 5.32788 -16.3975 464.269
      vertex 4.63525 -14.2658 466.401
      vertex 1.56793 -14.9178 465.749
    endloop
  endfacet
  facet normal 3.24442e-006 -0.707108 0.707106
    outer loop
      vertex 7.5 -12.9904 467.677
      vertex 8.62069 -14.9315 465.735
      vertex 11.5367 -12.8128 467.854
    endloop
  endfacet
  facet normal 3.74499e-006 -0.707106 0.707107
    outer loop
      vertex -1.80221 -17.1469 463.52
      vertex -1.56793 -14.9178 465.749
      vertex -5.32788 -16.3975 464.269
    endloop
  endfacet
  facet normal 0 -0.707106 0.707108
    outer loop
      vertex -1.56793 -14.9178 465.749
      vertex -1.80221 -17.1469 463.52
      vertex 1.56793 -14.9178 465.749
    endloop
  endfacet
  facet normal 4.34912e-007 -0.707102 0.707111
    outer loop
      vertex 4.63525 -14.2658 466.401
      vertex 5.32788 -16.3975 464.269
      vertex 8.62069 -14.9315 465.735
    endloop
  endfacet
  facet normal 0 -0.707106 0.707108
    outer loop
      vertex 1.80221 -17.1469 463.52
      vertex 1.56793 -14.9178 465.749
      vertex -1.80221 -17.1469 463.52
    endloop
  endfacet
  facet normal -3.74499e-006 -0.707106 0.707107
    outer loop
      vertex 1.56793 -14.9178 465.749
      vertex 1.80221 -17.1469 463.52
      vertex 5.32788 -16.3975 464.269
    endloop
  endfacet
endsolid OpenSCAD_Model
