solid OpenSCAD_Model
  facet normal 0.951057 0.309017 0
    outer loop
      vertex 48.9074 10.3956 309.513
      vertex 45.6773 20.3368 0
      vertex 45.6773 20.3368 356.283
    endloop
  endfacet
  facet normal 0.951057 0.309017 0
    outer loop
      vertex 45.6773 20.3368 0
      vertex 48.9074 10.3956 309.513
      vertex 48.9074 10.3956 0
    endloop
  endfacet
  facet normal 0.994522 0.104529 0
    outer loop
      vertex 50 0 260.606
      vertex 48.9074 10.3956 0
      vertex 48.9074 10.3956 309.513
    endloop
  endfacet
  facet normal 0.994522 0.104529 0
    outer loop
      vertex 48.9074 10.3956 0
      vertex 50 0 260.606
      vertex 50 0 0
    endloop
  endfacet
  facet normal 0.587785 0.809017 0
    outer loop
      vertex 25 43.3013 0
      vertex 33.4565 37.1572 435.417
      vertex 33.4565 37.1572 0
    endloop
  endfacet
  facet normal 0.587785 0.809017 0
    outer loop
      vertex 33.4565 37.1572 435.417
      vertex 25 43.3013 0
      vertex 25 43.3013 464.322
    endloop
  endfacet
  facet normal -0.406737 -0.913545 0
    outer loop
      vertex -25 -43.3013 0
      vertex -15.4508 -47.5528 36.8875
      vertex -25 -43.3013 56.8894
    endloop
  endfacet
  facet normal -0.406737 -0.913545 -0
    outer loop
      vertex -15.4508 -47.5528 36.8875
      vertex -25 -43.3013 0
      vertex -15.4508 -47.5528 0
    endloop
  endfacet
  facet normal 0.951057 -0.309017 0
    outer loop
      vertex 45.6773 -20.3368 164.929
      vertex 48.9074 -10.3956 0
      vertex 48.9074 -10.3956 211.699
    endloop
  endfacet
  facet normal 0.951057 -0.309017 0
    outer loop
      vertex 48.9074 -10.3956 0
      vertex 45.6773 -20.3368 164.929
      vertex 45.6773 -20.3368 0
    endloop
  endfacet
  facet normal -0.406737 0.913545 0
    outer loop
      vertex -15.4508 47.5528 0
      vertex -25 43.3013 464.322
      vertex -15.4508 47.5528 484.324
    endloop
  endfacet
  facet normal -0.406737 0.913545 0
    outer loop
      vertex -25 43.3013 464.322
      vertex -15.4508 47.5528 0
      vertex -25 43.3013 0
    endloop
  endfacet
  facet normal 0.743145 -0.669131 0
    outer loop
      vertex 33.4565 -37.1572 85.7948
      vertex 40.4509 -29.3893 0
      vertex 40.4509 -29.3893 122.34
    endloop
  endfacet
  facet normal 0.743145 -0.669131 0
    outer loop
      vertex 40.4509 -29.3893 0
      vertex 33.4565 -37.1572 85.7948
      vertex 33.4565 -37.1572 0
    endloop
  endfacet
  facet normal 0.866025 -0.5 0
    outer loop
      vertex 40.4509 -29.3893 122.34
      vertex 45.6773 -20.3368 0
      vertex 45.6773 -20.3368 164.929
    endloop
  endfacet
  facet normal 0.866025 -0.5 0
    outer loop
      vertex 45.6773 -20.3368 0
      vertex 40.4509 -29.3893 122.34
      vertex 40.4509 -29.3893 0
    endloop
  endfacet
  facet normal 0 0 -1
    outer loop
      vertex 43.5 0 0
      vertex 50 0 0
      vertex 48.9074 -10.3956 0
    endloop
  endfacet
  facet normal 0 0 -1
    outer loop
      vertex 42.5494 -9.04416 0
      vertex 48.9074 -10.3956 0
      vertex 45.6773 -20.3368 0
    endloop
  endfacet
  facet normal 0 0 -1
    outer loop
      vertex 50 0 0
      vertex 43.5 0 0
      vertex 48.9074 10.3956 0
    endloop
  endfacet
  facet normal 0 0 -1
    outer loop
      vertex 42.5494 9.04416 0
      vertex 48.9074 10.3956 0
      vertex 43.5 0 0
    endloop
  endfacet
  facet normal 0 0 -1
    outer loop
      vertex 48.9074 -10.3956 0
      vertex 42.5494 -9.04416 0
      vertex 43.5 0 0
    endloop
  endfacet
  facet normal 0 0 -1
    outer loop
      vertex 39.7392 -17.693 0
      vertex 45.6773 -20.3368 0
      vertex 40.4509 -29.3893 0
    endloop
  endfacet
  facet normal 0 0 -1
    outer loop
      vertex 45.6773 -20.3368 0
      vertex 39.7392 -17.693 0
      vertex 42.5494 -9.04416 0
    endloop
  endfacet
  facet normal 0 0 -1
    outer loop
      vertex 40.4509 -29.3893 0
      vertex 35.1922 -25.5687 0
      vertex 39.7392 -17.693 0
    endloop
  endfacet
  facet normal 0 0 -1
    outer loop
      vertex 33.4565 -37.1572 0
      vertex 35.1922 -25.5687 0
      vertex 40.4509 -29.3893 0
    endloop
  endfacet
  facet normal 0 0 -1
    outer loop
      vertex 33.4565 -37.1572 0
      vertex 29.1072 -32.3268 0
      vertex 35.1922 -25.5687 0
    endloop
  endfacet
  facet normal 0 0 -1
    outer loop
      vertex 25 -43.3013 0
      vertex 29.1072 -32.3268 0
      vertex 33.4565 -37.1572 0
    endloop
  endfacet
  facet normal 0 0 -1
    outer loop
      vertex 25 -43.3013 0
      vertex 21.75 -37.6721 0
      vertex 29.1072 -32.3268 0
    endloop
  endfacet
  facet normal 0 0 -1
    outer loop
      vertex 15.4508 -47.5528 0
      vertex 21.75 -37.6721 0
      vertex 25 -43.3013 0
    endloop
  endfacet
  facet normal 0 0 -1
    outer loop
      vertex 15.4508 -47.5528 0
      vertex 13.4422 -41.371 0
      vertex 21.75 -37.6721 0
    endloop
  endfacet
  facet normal 0 0 -1
    outer loop
      vertex 5.22642 -49.7261 0
      vertex 13.4422 -41.371 0
      vertex 15.4508 -47.5528 0
    endloop
  endfacet
  facet normal 0 0 -1
    outer loop
      vertex 5.22642 -49.7261 0
      vertex 4.54699 -43.2617 0
      vertex 13.4422 -41.371 0
    endloop
  endfacet
  facet normal 0 0 -1
    outer loop
      vertex 5.22642 -49.7261 0
      vertex -4.54699 -43.2617 0
      vertex 4.54699 -43.2617 0
    endloop
  endfacet
  facet normal 0 0 -1
    outer loop
      vertex -5.22642 -49.7261 0
      vertex -4.54699 -43.2617 0
      vertex 5.22642 -49.7261 0
    endloop
  endfacet
  facet normal 0 0 -1
    outer loop
      vertex -5.22642 -49.7261 0
      vertex -13.4422 -41.371 0
      vertex -4.54699 -43.2617 0
    endloop
  endfacet
  facet normal 0 0 -1
    outer loop
      vertex -15.4508 -47.5528 0
      vertex -13.4422 -41.371 0
      vertex -5.22642 -49.7261 0
    endloop
  endfacet
  facet normal 0 0 -1
    outer loop
      vertex -15.4508 -47.5528 0
      vertex -21.75 -37.6721 0
      vertex -13.4422 -41.371 0
    endloop
  endfacet
  facet normal 0 0 -1
    outer loop
      vertex -25 -43.3013 0
      vertex -21.75 -37.6721 0
      vertex -15.4508 -47.5528 0
    endloop
  endfacet
  facet normal 0 0 -1
    outer loop
      vertex -25 -43.3013 0
      vertex -29.1072 -32.3268 0
      vertex -21.75 -37.6721 0
    endloop
  endfacet
  facet normal 0 0 -1
    outer loop
      vertex -33.4565 -37.1572 0
      vertex -29.1072 -32.3268 0
      vertex -25 -43.3013 0
    endloop
  endfacet
  facet normal 0 0 -1
    outer loop
      vertex -33.4565 -37.1572 0
      vertex -35.1922 -25.5687 0
      vertex -29.1072 -32.3268 0
    endloop
  endfacet
  facet normal 0 0 -1
    outer loop
      vertex -40.4509 -29.3893 0
      vertex -35.1922 -25.5687 0
      vertex -33.4565 -37.1572 0
    endloop
  endfacet
  facet normal -0 0 -1
    outer loop
      vertex -35.1922 -25.5687 0
      vertex -40.4509 -29.3893 0
      vertex -39.7392 -17.693 0
    endloop
  endfacet
  facet normal 0 0 -1
    outer loop
      vertex -45.6773 -20.3368 0
      vertex -39.7392 -17.693 0
      vertex -40.4509 -29.3893 0
    endloop
  endfacet
  facet normal -0 0 -1
    outer loop
      vertex -39.7392 -17.693 0
      vertex -45.6773 -20.3368 0
      vertex -42.5494 -9.04416 0
    endloop
  endfacet
  facet normal 0 0 -1
    outer loop
      vertex -48.9074 -10.3956 0
      vertex -42.5494 -9.04416 0
      vertex -45.6773 -20.3368 0
    endloop
  endfacet
  facet normal -0 0 -1
    outer loop
      vertex 48.9074 10.3956 0
      vertex 42.5494 9.04416 0
      vertex 45.6773 20.3368 0
    endloop
  endfacet
  facet normal 0 0 -1
    outer loop
      vertex 39.7392 17.693 0
      vertex 45.6773 20.3368 0
      vertex 42.5494 9.04416 0
    endloop
  endfacet
  facet normal -0 0 -1
    outer loop
      vertex 45.6773 20.3368 0
      vertex 39.7392 17.693 0
      vertex 40.4509 29.3893 0
    endloop
  endfacet
  facet normal 0 0 -1
    outer loop
      vertex 35.1922 25.5687 0
      vertex 40.4509 29.3893 0
      vertex 39.7392 17.693 0
    endloop
  endfacet
  facet normal 0 0 -1
    outer loop
      vertex 35.1922 25.5687 0
      vertex 33.4565 37.1572 0
      vertex 40.4509 29.3893 0
    endloop
  endfacet
  facet normal 0 0 -1
    outer loop
      vertex 29.1072 32.3268 0
      vertex 33.4565 37.1572 0
      vertex 35.1922 25.5687 0
    endloop
  endfacet
  facet normal 0 0 -1
    outer loop
      vertex 29.1072 32.3268 0
      vertex 25 43.3013 0
      vertex 33.4565 37.1572 0
    endloop
  endfacet
  facet normal 0 0 -1
    outer loop
      vertex 21.75 37.6721 0
      vertex 25 43.3013 0
      vertex 29.1072 32.3268 0
    endloop
  endfacet
  facet normal 0 0 -1
    outer loop
      vertex 21.75 37.6721 0
      vertex 15.4508 47.5528 0
      vertex 25 43.3013 0
    endloop
  endfacet
  facet normal 0 0 -1
    outer loop
      vertex 13.4422 41.371 0
      vertex 15.4508 47.5528 0
      vertex 21.75 37.6721 0
    endloop
  endfacet
  facet normal 0 0 -1
    outer loop
      vertex 13.4422 41.371 0
      vertex 5.22642 49.7261 0
      vertex 15.4508 47.5528 0
    endloop
  endfacet
  facet normal 0 0 -1
    outer loop
      vertex 4.54699 43.2617 0
      vertex 5.22642 49.7261 0
      vertex 13.4422 41.371 0
    endloop
  endfacet
  facet normal 0 0 -1
    outer loop
      vertex -4.54699 43.2617 0
      vertex 5.22642 49.7261 0
      vertex 4.54699 43.2617 0
    endloop
  endfacet
  facet normal 0 0 -1
    outer loop
      vertex -4.54699 43.2617 0
      vertex -5.22642 49.7261 0
      vertex 5.22642 49.7261 0
    endloop
  endfacet
  facet normal 0 0 -1
    outer loop
      vertex -13.4422 41.371 0
      vertex -5.22642 49.7261 0
      vertex -4.54699 43.2617 0
    endloop
  endfacet
  facet normal 0 0 -1
    outer loop
      vertex -13.4422 41.371 0
      vertex -15.4508 47.5528 0
      vertex -5.22642 49.7261 0
    endloop
  endfacet
  facet normal 0 0 -1
    outer loop
      vertex -21.75 37.6721 0
      vertex -15.4508 47.5528 0
      vertex -13.4422 41.371 0
    endloop
  endfacet
  facet normal 0 0 -1
    outer loop
      vertex -21.75 37.6721 0
      vertex -25 43.3013 0
      vertex -15.4508 47.5528 0
    endloop
  endfacet
  facet normal 0 0 -1
    outer loop
      vertex -29.1072 32.3268 0
      vertex -25 43.3013 0
      vertex -21.75 37.6721 0
    endloop
  endfacet
  facet normal 0 0 -1
    outer loop
      vertex -29.1072 32.3268 0
      vertex -33.4565 37.1572 0
      vertex -25 43.3013 0
    endloop
  endfacet
  facet normal 0 0 -1
    outer loop
      vertex -35.1922 25.5687 0
      vertex -33.4565 37.1572 0
      vertex -29.1072 32.3268 0
    endloop
  endfacet
  facet normal 0 0 -1
    outer loop
      vertex -40.4509 29.3893 0
      vertex -35.1922 25.5687 0
      vertex -39.7392 17.693 0
    endloop
  endfacet
  facet normal 0 0 -1
    outer loop
      vertex -35.1922 25.5687 0
      vertex -40.4509 29.3893 0
      vertex -33.4565 37.1572 0
    endloop
  endfacet
  facet normal 0 0 -1
    outer loop
      vertex -45.6773 20.3368 0
      vertex -39.7392 17.693 0
      vertex -42.5494 9.04416 0
    endloop
  endfacet
  facet normal 0 0 -1
    outer loop
      vertex -48.9074 10.3956 0
      vertex -42.5494 9.04416 0
      vertex -43.5 0 0
    endloop
  endfacet
  facet normal -0 0 -1
    outer loop
      vertex -42.5494 -9.04416 0
      vertex -48.9074 -10.3956 0
      vertex -43.5 0 0
    endloop
  endfacet
  facet normal 0 0 -1
    outer loop
      vertex -39.7392 17.693 0
      vertex -45.6773 20.3368 0
      vertex -40.4509 29.3893 0
    endloop
  endfacet
  facet normal 0 0 -1
    outer loop
      vertex -50 0 0
      vertex -43.5 0 0
      vertex -48.9074 -10.3956 0
    endloop
  endfacet
  facet normal 0 0 -1
    outer loop
      vertex -42.5494 9.04416 0
      vertex -48.9074 10.3956 0
      vertex -45.6773 20.3368 0
    endloop
  endfacet
  facet normal 0 0 -1
    outer loop
      vertex -43.5 0 0
      vertex -50 0 0
      vertex -48.9074 10.3956 0
    endloop
  endfacet
  facet normal -0.994522 -0.104529 -0
    outer loop
      vertex -48.9074 -10.3956 211.699
      vertex -50 0 0
      vertex -48.9074 -10.3956 0
    endloop
  endfacet
  facet normal -0.994522 -0.104529 0
    outer loop
      vertex -50 0 0
      vertex -48.9074 -10.3956 211.699
      vertex -50 0 260.606
    endloop
  endfacet
  facet normal 0.866025 0.5 0
    outer loop
      vertex 45.6773 20.3368 356.283
      vertex 40.4509 29.3893 0
      vertex 40.4509 29.3893 398.872
    endloop
  endfacet
  facet normal 0.866025 0.5 0
    outer loop
      vertex 40.4509 29.3893 0
      vertex 45.6773 20.3368 356.283
      vertex 45.6773 20.3368 0
    endloop
  endfacet
  facet normal 0.994522 -0.104529 0
    outer loop
      vertex 48.9074 -10.3956 211.699
      vertex 50 0 0
      vertex 50 0 260.606
    endloop
  endfacet
  facet normal 0.994522 -0.104529 0
    outer loop
      vertex 50 0 0
      vertex 48.9074 -10.3956 211.699
      vertex 48.9074 -10.3956 0
    endloop
  endfacet
  facet normal -0.951057 -0.309017 -0
    outer loop
      vertex -45.6773 -20.3368 164.929
      vertex -48.9074 -10.3956 0
      vertex -45.6773 -20.3368 0
    endloop
  endfacet
  facet normal -0.951057 -0.309017 0
    outer loop
      vertex -48.9074 -10.3956 0
      vertex -45.6773 -20.3368 164.929
      vertex -48.9074 -10.3956 211.699
    endloop
  endfacet
  facet normal -0.743145 -0.669131 -0
    outer loop
      vertex -33.4565 -37.1572 85.7948
      vertex -40.4509 -29.3893 0
      vertex -33.4565 -37.1572 0
    endloop
  endfacet
  facet normal -0.743145 -0.669131 0
    outer loop
      vertex -40.4509 -29.3893 0
      vertex -33.4565 -37.1572 85.7948
      vertex -40.4509 -29.3893 122.34
    endloop
  endfacet
  facet normal 0 -1 0
    outer loop
      vertex -5.22642 -49.7261 0
      vertex 5.22642 -49.7261 26.663
      vertex -5.22642 -49.7261 26.663
    endloop
  endfacet
  facet normal 0 -1 -0
    outer loop
      vertex 5.22642 -49.7261 26.663
      vertex -5.22642 -49.7261 0
      vertex 5.22642 -49.7261 0
    endloop
  endfacet
  facet normal 0.207912 -0.978148 0
    outer loop
      vertex 15.4508 -47.5528 0
      vertex 5.22642 -49.7261 26.663
      vertex 5.22642 -49.7261 0
    endloop
  endfacet
  facet normal 0.207912 -0.978148 0
    outer loop
      vertex 5.22642 -49.7261 26.663
      vertex 15.4508 -47.5528 0
      vertex 15.4508 -47.5528 36.8875
    endloop
  endfacet
  facet normal 0.406737 -0.913545 0
    outer loop
      vertex 25 -43.3013 0
      vertex 15.4508 -47.5528 36.8875
      vertex 15.4508 -47.5528 0
    endloop
  endfacet
  facet normal 0.406737 -0.913545 0
    outer loop
      vertex 15.4508 -47.5528 36.8875
      vertex 25 -43.3013 0
      vertex 25 -43.3013 56.8894
    endloop
  endfacet
  facet normal 0.587785 -0.809017 0
    outer loop
      vertex 33.4565 -37.1572 0
      vertex 25 -43.3013 56.8894
      vertex 25 -43.3013 0
    endloop
  endfacet
  facet normal 0.587785 -0.809017 0
    outer loop
      vertex 25 -43.3013 56.8894
      vertex 33.4565 -37.1572 0
      vertex 33.4565 -37.1572 85.7948
    endloop
  endfacet
  facet normal -0.587785 0.809017 0
    outer loop
      vertex -25 43.3013 0
      vertex -33.4565 37.1572 435.417
      vertex -25 43.3013 464.322
    endloop
  endfacet
  facet normal -0.587785 0.809017 0
    outer loop
      vertex -33.4565 37.1572 435.417
      vertex -25 43.3013 0
      vertex -33.4565 37.1572 0
    endloop
  endfacet
  facet normal -0.866025 0.5 0
    outer loop
      vertex -45.6773 20.3368 356.283
      vertex -40.4509 29.3893 0
      vertex -45.6773 20.3368 0
    endloop
  endfacet
  facet normal -0.866025 0.5 0
    outer loop
      vertex -40.4509 29.3893 0
      vertex -45.6773 20.3368 356.283
      vertex -40.4509 29.3893 398.872
    endloop
  endfacet
  facet normal -0.743145 0.669131 0
    outer loop
      vertex -40.4509 29.3893 398.872
      vertex -33.4565 37.1572 0
      vertex -40.4509 29.3893 0
    endloop
  endfacet
  facet normal -0.743145 0.669131 0
    outer loop
      vertex -33.4565 37.1572 0
      vertex -40.4509 29.3893 398.872
      vertex -33.4565 37.1572 435.417
    endloop
  endfacet
  facet normal -0.951057 0.309017 0
    outer loop
      vertex -48.9074 10.3956 309.513
      vertex -45.6773 20.3368 0
      vertex -48.9074 10.3956 0
    endloop
  endfacet
  facet normal -0.951057 0.309017 0
    outer loop
      vertex -45.6773 20.3368 0
      vertex -48.9074 10.3956 309.513
      vertex -45.6773 20.3368 356.283
    endloop
  endfacet
  facet normal -0.994522 0.104529 0
    outer loop
      vertex -50 0 260.606
      vertex -48.9074 10.3956 0
      vertex -50 0 0
    endloop
  endfacet
  facet normal -0.994522 0.104529 0
    outer loop
      vertex -48.9074 10.3956 0
      vertex -50 0 260.606
      vertex -48.9074 10.3956 309.513
    endloop
  endfacet
  facet normal 0.743145 0.669131 0
    outer loop
      vertex 40.4509 29.3893 398.872
      vertex 33.4565 37.1572 0
      vertex 33.4565 37.1572 435.417
    endloop
  endfacet
  facet normal 0.743145 0.669131 0
    outer loop
      vertex 33.4565 37.1572 0
      vertex 40.4509 29.3893 398.872
      vertex 40.4509 29.3893 0
    endloop
  endfacet
  facet normal 0.207912 0.978148 0
    outer loop
      vertex 5.22642 49.7261 0
      vertex 15.4508 47.5528 484.324
      vertex 15.4508 47.5528 0
    endloop
  endfacet
  facet normal 0.207912 0.978148 0
    outer loop
      vertex 15.4508 47.5528 484.324
      vertex 5.22642 49.7261 0
      vertex 5.22642 49.7261 494.549
    endloop
  endfacet
  facet normal 0 1 -0
    outer loop
      vertex 5.22642 49.7261 0
      vertex -5.22642 49.7261 494.549
      vertex 5.22642 49.7261 494.549
    endloop
  endfacet
  facet normal 0 1 0
    outer loop
      vertex -5.22642 49.7261 494.549
      vertex 5.22642 49.7261 0
      vertex -5.22642 49.7261 0
    endloop
  endfacet
  facet normal 0.406737 0.913545 0
    outer loop
      vertex 15.4508 47.5528 0
      vertex 25 43.3013 464.322
      vertex 25 43.3013 0
    endloop
  endfacet
  facet normal 0.406737 0.913545 0
    outer loop
      vertex 25 43.3013 464.322
      vertex 15.4508 47.5528 0
      vertex 15.4508 47.5528 484.324
    endloop
  endfacet
  facet normal -0.207912 0.978148 0
    outer loop
      vertex -5.22642 49.7261 0
      vertex -15.4508 47.5528 484.324
      vertex -5.22642 49.7261 494.549
    endloop
  endfacet
  facet normal -0.207912 0.978148 0
    outer loop
      vertex -15.4508 47.5528 484.324
      vertex -5.22642 49.7261 0
      vertex -15.4508 47.5528 0
    endloop
  endfacet
  facet normal -0.587785 -0.809017 0
    outer loop
      vertex -33.4565 -37.1572 0
      vertex -25 -43.3013 56.8894
      vertex -33.4565 -37.1572 85.7948
    endloop
  endfacet
  facet normal -0.587785 -0.809017 -0
    outer loop
      vertex -25 -43.3013 56.8894
      vertex -33.4565 -37.1572 0
      vertex -25 -43.3013 0
    endloop
  endfacet
  facet normal -0.866025 -0.5 -0
    outer loop
      vertex -40.4509 -29.3893 122.34
      vertex -45.6773 -20.3368 0
      vertex -40.4509 -29.3893 0
    endloop
  endfacet
  facet normal -0.866025 -0.5 0
    outer loop
      vertex -45.6773 -20.3368 0
      vertex -40.4509 -29.3893 122.34
      vertex -45.6773 -20.3368 164.929
    endloop
  endfacet
  facet normal -0.207912 -0.978148 0
    outer loop
      vertex -15.4508 -47.5528 0
      vertex -5.22642 -49.7261 26.663
      vertex -15.4508 -47.5528 36.8875
    endloop
  endfacet
  facet normal -0.207912 -0.978148 -0
    outer loop
      vertex -5.22642 -49.7261 26.663
      vertex -15.4508 -47.5528 0
      vertex -5.22642 -49.7261 0
    endloop
  endfacet
  facet normal -0.951057 -0.309017 -0
    outer loop
      vertex 42.5494 9.04416 303.155
      vertex 39.7392 17.693 0
      vertex 42.5494 9.04416 0
    endloop
  endfacet
  facet normal -0.951057 -0.309017 0
    outer loop
      vertex 39.7392 17.693 0
      vertex 42.5494 9.04416 303.155
      vertex 39.7392 17.693 343.845
    endloop
  endfacet
  facet normal -0.994522 -0.104529 -0
    outer loop
      vertex 43.5 0 260.606
      vertex 42.5494 9.04416 0
      vertex 43.5 0 0
    endloop
  endfacet
  facet normal -0.994522 -0.104529 0
    outer loop
      vertex 42.5494 9.04416 0
      vertex 43.5 0 260.606
      vertex 42.5494 9.04416 303.155
    endloop
  endfacet
  facet normal -0.587785 -0.809017 0
    outer loop
      vertex 21.75 37.6721 0
      vertex 29.1072 32.3268 412.692
      vertex 21.75 37.6721 437.839
    endloop
  endfacet
  facet normal -0.587785 -0.809017 -0
    outer loop
      vertex 29.1072 32.3268 412.692
      vertex 21.75 37.6721 0
      vertex 29.1072 32.3268 0
    endloop
  endfacet
  facet normal 0.406737 0.913546 0
    outer loop
      vertex -21.75 -37.6721 0
      vertex -13.4422 -41.371 65.9708
      vertex -13.4422 -41.371 0
    endloop
  endfacet
  facet normal 0.406737 0.913546 0
    outer loop
      vertex -13.4422 -41.371 65.9708
      vertex -21.75 -37.6721 0
      vertex -21.75 -37.6721 83.3726
    endloop
  endfacet
  facet normal -0.951057 0.309017 0
    outer loop
      vertex 39.7392 -17.693 177.367
      vertex 42.5494 -9.04416 0
      vertex 39.7392 -17.693 0
    endloop
  endfacet
  facet normal -0.951057 0.309017 0
    outer loop
      vertex 42.5494 -9.04416 0
      vertex 39.7392 -17.693 177.367
      vertex 42.5494 -9.04416 218.056
    endloop
  endfacet
  facet normal 0.406737 -0.913546 0
    outer loop
      vertex -13.4422 41.371 0
      vertex -21.75 37.6721 437.839
      vertex -21.75 37.6721 0
    endloop
  endfacet
  facet normal 0.406737 -0.913546 0
    outer loop
      vertex -21.75 37.6721 437.839
      vertex -13.4422 41.371 0
      vertex -13.4422 41.371 455.241
    endloop
  endfacet
  facet normal -0.866025 0.5 0
    outer loop
      vertex 35.1922 -25.5687 140.315
      vertex 39.7392 -17.693 0
      vertex 35.1922 -25.5687 0
    endloop
  endfacet
  facet normal -0.866025 0.5 0
    outer loop
      vertex 39.7392 -17.693 0
      vertex 35.1922 -25.5687 140.315
      vertex 39.7392 -17.693 177.367
    endloop
  endfacet
  facet normal 0.994522 0.104529 0
    outer loop
      vertex -42.5494 -9.04416 218.056
      vertex -43.5 0 0
      vertex -43.5 0 260.606
    endloop
  endfacet
  facet normal 0.994522 0.104529 0
    outer loop
      vertex -43.5 0 0
      vertex -42.5494 -9.04416 218.056
      vertex -42.5494 -9.04416 0
    endloop
  endfacet
  facet normal -0.866025 -0.5 -0
    outer loop
      vertex 39.7392 17.693 343.845
      vertex 35.1922 25.5687 0
      vertex 39.7392 17.693 0
    endloop
  endfacet
  facet normal -0.866025 -0.5 0
    outer loop
      vertex 35.1922 25.5687 0
      vertex 39.7392 17.693 343.845
      vertex 35.1922 25.5687 380.897
    endloop
  endfacet
  facet normal -0.994522 0.104529 0
    outer loop
      vertex 42.5494 -9.04416 218.056
      vertex 43.5 0 0
      vertex 42.5494 -9.04416 0
    endloop
  endfacet
  facet normal -0.994522 0.104529 0
    outer loop
      vertex 43.5 0 0
      vertex 42.5494 -9.04416 218.056
      vertex 43.5 0 260.606
    endloop
  endfacet
  facet normal 0.951057 0.309017 0
    outer loop
      vertex -39.7392 -17.693 177.367
      vertex -42.5494 -9.04416 0
      vertex -42.5494 -9.04416 218.056
    endloop
  endfacet
  facet normal 0.951057 0.309017 0
    outer loop
      vertex -42.5494 -9.04416 0
      vertex -39.7392 -17.693 177.367
      vertex -39.7392 -17.693 0
    endloop
  endfacet
  facet normal 0.743145 0.669131 0
    outer loop
      vertex -29.1072 -32.3268 108.52
      vertex -35.1922 -25.5687 0
      vertex -35.1922 -25.5687 140.315
    endloop
  endfacet
  facet normal 0.743145 0.669131 0
    outer loop
      vertex -35.1922 -25.5687 0
      vertex -29.1072 -32.3268 108.52
      vertex -29.1072 -32.3268 0
    endloop
  endfacet
  facet normal 0.207912 0.978148 0
    outer loop
      vertex -13.4422 -41.371 0
      vertex -4.54699 -43.2617 57.0756
      vertex -4.54699 -43.2617 0
    endloop
  endfacet
  facet normal 0.207912 0.978148 0
    outer loop
      vertex -4.54699 -43.2617 57.0756
      vertex -13.4422 -41.371 0
      vertex -13.4422 -41.371 65.9708
    endloop
  endfacet
  facet normal 0 1 -0
    outer loop
      vertex 4.54699 -43.2617 0
      vertex -4.54699 -43.2617 57.0756
      vertex 4.54699 -43.2617 57.0756
    endloop
  endfacet
  facet normal 0 1 0
    outer loop
      vertex -4.54699 -43.2617 57.0756
      vertex 4.54699 -43.2617 0
      vertex -4.54699 -43.2617 0
    endloop
  endfacet
  facet normal -0.207912 0.978148 0
    outer loop
      vertex 13.4422 -41.371 0
      vertex 4.54699 -43.2617 57.0756
      vertex 13.4422 -41.371 65.9708
    endloop
  endfacet
  facet normal -0.207912 0.978148 0
    outer loop
      vertex 4.54699 -43.2617 57.0756
      vertex 13.4422 -41.371 0
      vertex 4.54699 -43.2617 0
    endloop
  endfacet
  facet normal -0.406737 0.913546 0
    outer loop
      vertex 21.75 -37.6721 0
      vertex 13.4422 -41.371 65.9708
      vertex 21.75 -37.6721 83.3726
    endloop
  endfacet
  facet normal -0.406737 0.913546 0
    outer loop
      vertex 13.4422 -41.371 65.9708
      vertex 21.75 -37.6721 0
      vertex 13.4422 -41.371 0
    endloop
  endfacet
  facet normal -0.587785 0.809017 0
    outer loop
      vertex 29.1072 -32.3268 0
      vertex 21.75 -37.6721 83.3726
      vertex 29.1072 -32.3268 108.52
    endloop
  endfacet
  facet normal -0.587785 0.809017 0
    outer loop
      vertex 21.75 -37.6721 83.3726
      vertex 29.1072 -32.3268 0
      vertex 21.75 -37.6721 0
    endloop
  endfacet
  facet normal 0.587785 -0.809017 0
    outer loop
      vertex -21.75 37.6721 0
      vertex -29.1072 32.3268 412.692
      vertex -29.1072 32.3268 0
    endloop
  endfacet
  facet normal 0.587785 -0.809017 0
    outer loop
      vertex -29.1072 32.3268 412.692
      vertex -21.75 37.6721 0
      vertex -21.75 37.6721 437.839
    endloop
  endfacet
  facet normal 0.866025 -0.5 0
    outer loop
      vertex -39.7392 17.693 343.845
      vertex -35.1922 25.5687 0
      vertex -35.1922 25.5687 380.897
    endloop
  endfacet
  facet normal 0.866025 -0.5 0
    outer loop
      vertex -35.1922 25.5687 0
      vertex -39.7392 17.693 343.845
      vertex -39.7392 17.693 0
    endloop
  endfacet
  facet normal 0.743145 -0.669131 0
    outer loop
      vertex -35.1922 25.5687 380.897
      vertex -29.1072 32.3268 0
      vertex -29.1072 32.3268 412.692
    endloop
  endfacet
  facet normal 0.743145 -0.669131 0
    outer loop
      vertex -29.1072 32.3268 0
      vertex -35.1922 25.5687 380.897
      vertex -35.1922 25.5687 0
    endloop
  endfacet
  facet normal 0.951057 -0.309017 0
    outer loop
      vertex -42.5494 9.04416 303.155
      vertex -39.7392 17.693 0
      vertex -39.7392 17.693 343.845
    endloop
  endfacet
  facet normal 0.951057 -0.309017 0
    outer loop
      vertex -39.7392 17.693 0
      vertex -42.5494 9.04416 303.155
      vertex -42.5494 9.04416 0
    endloop
  endfacet
  facet normal 0.994522 -0.104529 0
    outer loop
      vertex -43.5 0 260.606
      vertex -42.5494 9.04416 0
      vertex -42.5494 9.04416 303.155
    endloop
  endfacet
  facet normal 0.994522 -0.104529 0
    outer loop
      vertex -42.5494 9.04416 0
      vertex -43.5 0 260.606
      vertex -43.5 0 0
    endloop
  endfacet
  facet normal -0.743145 -0.669131 -0
    outer loop
      vertex 35.1922 25.5687 380.897
      vertex 29.1072 32.3268 0
      vertex 35.1922 25.5687 0
    endloop
  endfacet
  facet normal -0.743145 -0.669131 0
    outer loop
      vertex 29.1072 32.3268 0
      vertex 35.1922 25.5687 380.897
      vertex 29.1072 32.3268 412.692
    endloop
  endfacet
  facet normal -0.207912 -0.978148 0
    outer loop
      vertex 4.54699 43.2617 0
      vertex 13.4422 41.371 455.241
      vertex 4.54699 43.2617 464.136
    endloop
  endfacet
  facet normal -0.207912 -0.978148 -0
    outer loop
      vertex 13.4422 41.371 455.241
      vertex 4.54699 43.2617 0
      vertex 13.4422 41.371 0
    endloop
  endfacet
  facet normal 0 -1 0
    outer loop
      vertex -4.54699 43.2617 0
      vertex 4.54699 43.2617 464.136
      vertex -4.54699 43.2617 464.136
    endloop
  endfacet
  facet normal 0 -1 -0
    outer loop
      vertex 4.54699 43.2617 464.136
      vertex -4.54699 43.2617 0
      vertex 4.54699 43.2617 0
    endloop
  endfacet
  facet normal -0.406737 -0.913546 0
    outer loop
      vertex 13.4422 41.371 0
      vertex 21.75 37.6721 437.839
      vertex 13.4422 41.371 455.241
    endloop
  endfacet
  facet normal -0.406737 -0.913546 -0
    outer loop
      vertex 21.75 37.6721 437.839
      vertex 13.4422 41.371 0
      vertex 21.75 37.6721 0
    endloop
  endfacet
  facet normal 0.207912 -0.978148 0
    outer loop
      vertex -4.54699 43.2617 0
      vertex -13.4422 41.371 455.241
      vertex -13.4422 41.371 0
    endloop
  endfacet
  facet normal 0.207912 -0.978148 0
    outer loop
      vertex -13.4422 41.371 455.241
      vertex -4.54699 43.2617 0
      vertex -4.54699 43.2617 464.136
    endloop
  endfacet
  facet normal 0.587785 0.809017 0
    outer loop
      vertex -29.1072 -32.3268 0
      vertex -21.75 -37.6721 83.3726
      vertex -21.75 -37.6721 0
    endloop
  endfacet
  facet normal 0.587785 0.809017 0
    outer loop
      vertex -21.75 -37.6721 83.3726
      vertex -29.1072 -32.3268 0
      vertex -29.1072 -32.3268 108.52
    endloop
  endfacet
  facet normal 0.866025 0.5 0
    outer loop
      vertex -35.1922 -25.5687 140.315
      vertex -39.7392 -17.693 0
      vertex -39.7392 -17.693 177.367
    endloop
  endfacet
  facet normal 0.866025 0.5 0
    outer loop
      vertex -39.7392 -17.693 0
      vertex -35.1922 -25.5687 140.315
      vertex -35.1922 -25.5687 0
    endloop
  endfacet
  facet normal -0.743145 0.669131 0
    outer loop
      vertex 29.1072 -32.3268 108.52
      vertex 35.1922 -25.5687 0
      vertex 29.1072 -32.3268 0
    endloop
  endfacet
  facet normal -0.743145 0.669131 0
    outer loop
      vertex 35.1922 -25.5687 0
      vertex 29.1072 -32.3268 108.52
      vertex 35.1922 -25.5687 140.315
    endloop
  endfacet
  facet normal -5.17598e-007 -0.978148 0.207911
    outer loop
      vertex -4.54699 43.2617 464.136
      vertex -5.22642 49.7261 494.549
      vertex -15.4508 47.5528 484.324
    endloop
  endfacet
  facet normal 0 -0.978148 0.207911
    outer loop
      vertex -5.22642 49.7261 494.549
      vertex -4.54699 43.2617 464.136
      vertex 5.22642 49.7261 494.549
    endloop
  endfacet
  facet normal 1.39651e-007 -0.978148 0.207912
    outer loop
      vertex -4.54699 43.2617 464.136
      vertex -15.4508 47.5528 484.324
      vertex -25 43.3013 464.322
    endloop
  endfacet
  facet normal 0 -0.978148 0.207911
    outer loop
      vertex 4.54699 43.2617 464.136
      vertex 5.22642 49.7261 494.549
      vertex -4.54699 43.2617 464.136
    endloop
  endfacet
  facet normal 5.17598e-007 -0.978148 0.207911
    outer loop
      vertex 5.22642 49.7261 494.549
      vertex 4.54699 43.2617 464.136
      vertex 15.4508 47.5528 484.324
    endloop
  endfacet
  facet normal 1.44277e-007 -0.978147 0.207912
    outer loop
      vertex -25 43.3013 464.322
      vertex -13.4422 41.371 455.241
      vertex -4.54699 43.2617 464.136
    endloop
  endfacet
  facet normal -2.48465e-007 -0.978148 0.207912
    outer loop
      vertex -25 43.3013 464.322
      vertex -21.75 37.6721 437.839
      vertex -13.4422 41.371 455.241
    endloop
  endfacet
  facet normal -6.55782e-007 -0.978148 0.207912
    outer loop
      vertex -33.4565 37.1572 435.417
      vertex -21.75 37.6721 437.839
      vertex -25 43.3013 464.322
    endloop
  endfacet
  facet normal -6.55384e-007 -0.978148 0.207912
    outer loop
      vertex -33.4565 37.1572 435.417
      vertex -29.1072 32.3268 412.692
      vertex -21.75 37.6721 437.839
    endloop
  endfacet
  facet normal -1.0899e-007 -0.978148 0.207912
    outer loop
      vertex -40.4509 29.3893 398.872
      vertex -29.1072 32.3268 412.692
      vertex -33.4565 37.1572 435.417
    endloop
  endfacet
  facet normal 1.65342e-007 -0.978148 0.207912
    outer loop
      vertex -40.4509 29.3893 398.872
      vertex -35.1922 25.5687 380.897
      vertex -29.1072 32.3268 412.692
    endloop
  endfacet
  facet normal 1.57744e-007 -0.978148 0.207912
    outer loop
      vertex -45.6773 20.3368 356.283
      vertex -35.1922 25.5687 380.897
      vertex -40.4509 29.3893 398.872
    endloop
  endfacet
  facet normal -1.83228e-008 -0.978148 0.207912
    outer loop
      vertex -45.6773 20.3368 356.283
      vertex -39.7392 17.693 343.845
      vertex -35.1922 25.5687 380.897
    endloop
  endfacet
  facet normal -6.74496e-008 -0.978148 0.207912
    outer loop
      vertex -48.9074 10.3956 309.513
      vertex -39.7392 17.693 343.845
      vertex -45.6773 20.3368 356.283
    endloop
  endfacet
  facet normal -5.21059e-007 -0.978148 0.207912
    outer loop
      vertex -48.9074 10.3956 309.513
      vertex -42.5494 9.04416 303.155
      vertex -39.7392 17.693 343.845
    endloop
  endfacet
  facet normal -6.24153e-007 -0.978148 0.207912
    outer loop
      vertex -50 0 260.606
      vertex -42.5494 9.04416 303.155
      vertex -48.9074 10.3956 309.513
    endloop
  endfacet
  facet normal 0 -0.978148 0.207912
    outer loop
      vertex -50 0 260.606
      vertex -43.5 0 260.606
      vertex -42.5494 9.04416 303.155
    endloop
  endfacet
  facet normal 0 -0.978148 0.207912
    outer loop
      vertex -50 0 260.606
      vertex -42.5494 -9.04416 218.056
      vertex -43.5 0 260.606
    endloop
  endfacet
  facet normal -3.51995e-007 -0.978148 0.207912
    outer loop
      vertex -48.9074 -10.3956 211.699
      vertex -42.5494 -9.04416 218.056
      vertex -50 0 260.606
    endloop
  endfacet
  facet normal -2.66565e-007 -0.978148 0.207912
    outer loop
      vertex -48.9074 -10.3956 211.699
      vertex -39.7392 -17.693 177.367
      vertex -42.5494 -9.04416 218.056
    endloop
  endfacet
  facet normal 4.10066e-007 -0.978148 0.207912
    outer loop
      vertex -45.6773 -20.3368 164.929
      vertex -39.7392 -17.693 177.367
      vertex -48.9074 -10.3956 211.699
    endloop
  endfacet
  facet normal 4.43336e-007 -0.978148 0.207912
    outer loop
      vertex -45.6773 -20.3368 164.929
      vertex -35.1922 -25.5687 140.315
      vertex -39.7392 -17.693 177.367
    endloop
  endfacet
  facet normal 3.90085e-007 -0.978148 0.207912
    outer loop
      vertex -40.4509 -29.3893 122.34
      vertex -35.1922 -25.5687 140.315
      vertex -45.6773 -20.3368 164.929
    endloop
  endfacet
  facet normal 2.78628e-007 -0.978148 0.207912
    outer loop
      vertex -40.4509 -29.3893 122.34
      vertex -29.1072 -32.3268 108.52
      vertex -35.1922 -25.5687 140.315
    endloop
  endfacet
  facet normal 2.66821e-007 -0.978148 0.207912
    outer loop
      vertex -33.4565 -37.1572 85.7948
      vertex -29.1072 -32.3268 108.52
      vertex -40.4509 -29.3893 122.34
    endloop
  endfacet
  facet normal 2.50475e-007 -0.978148 0.207912
    outer loop
      vertex -33.4565 -37.1572 85.7948
      vertex -21.75 -37.6721 83.3726
      vertex -29.1072 -32.3268 108.52
    endloop
  endfacet
  facet normal 2.41217e-007 -0.978148 0.207912
    outer loop
      vertex -25 -43.3013 56.8894
      vertex -21.75 -37.6721 83.3726
      vertex -33.4565 -37.1572 85.7948
    endloop
  endfacet
  facet normal 9.87564e-008 -0.978148 0.207912
    outer loop
      vertex -21.75 -37.6721 83.3726
      vertex -25 -43.3013 56.8894
      vertex -13.4422 -41.371 65.9708
    endloop
  endfacet
  facet normal -9.99636e-008 -0.978148 0.207912
    outer loop
      vertex -15.4508 -47.5528 36.8875
      vertex -4.54699 -43.2617 57.0756
      vertex -25 -43.3013 56.8894
    endloop
  endfacet
  facet normal -1.02632e-007 -0.978148 0.207912
    outer loop
      vertex -13.4422 -41.371 65.9708
      vertex -25 -43.3013 56.8894
      vertex -4.54699 -43.2617 57.0756
    endloop
  endfacet
  facet normal -1.39651e-007 -0.978148 0.207912
    outer loop
      vertex 15.4508 47.5528 484.324
      vertex 4.54699 43.2617 464.136
      vertex 25 43.3013 464.322
    endloop
  endfacet
  facet normal -1.44277e-007 -0.978147 0.207912
    outer loop
      vertex 13.4422 41.371 455.241
      vertex 25 43.3013 464.322
      vertex 4.54699 43.2617 464.136
    endloop
  endfacet
  facet normal 2.48465e-007 -0.978148 0.207912
    outer loop
      vertex 21.75 37.6721 437.839
      vertex 25 43.3013 464.322
      vertex 13.4422 41.371 455.241
    endloop
  endfacet
  facet normal 6.55782e-007 -0.978148 0.207912
    outer loop
      vertex 21.75 37.6721 437.839
      vertex 33.4565 37.1572 435.417
      vertex 25 43.3013 464.322
    endloop
  endfacet
  facet normal 6.55384e-007 -0.978148 0.207912
    outer loop
      vertex 29.1072 32.3268 412.692
      vertex 33.4565 37.1572 435.417
      vertex 21.75 37.6721 437.839
    endloop
  endfacet
  facet normal 1.0899e-007 -0.978148 0.207912
    outer loop
      vertex 29.1072 32.3268 412.692
      vertex 40.4509 29.3893 398.872
      vertex 33.4565 37.1572 435.417
    endloop
  endfacet
  facet normal -1.65342e-007 -0.978148 0.207912
    outer loop
      vertex 35.1922 25.5687 380.897
      vertex 40.4509 29.3893 398.872
      vertex 29.1072 32.3268 412.692
    endloop
  endfacet
  facet normal -1.57744e-007 -0.978148 0.207912
    outer loop
      vertex 35.1922 25.5687 380.897
      vertex 45.6773 20.3368 356.283
      vertex 40.4509 29.3893 398.872
    endloop
  endfacet
  facet normal 1.83228e-008 -0.978148 0.207912
    outer loop
      vertex 39.7392 17.693 343.845
      vertex 45.6773 20.3368 356.283
      vertex 35.1922 25.5687 380.897
    endloop
  endfacet
  facet normal 6.74496e-008 -0.978148 0.207912
    outer loop
      vertex 39.7392 17.693 343.845
      vertex 48.9074 10.3956 309.513
      vertex 45.6773 20.3368 356.283
    endloop
  endfacet
  facet normal 5.21059e-007 -0.978148 0.207912
    outer loop
      vertex 42.5494 9.04416 303.155
      vertex 48.9074 10.3956 309.513
      vertex 39.7392 17.693 343.845
    endloop
  endfacet
  facet normal 0 -0.978148 0.207912
    outer loop
      vertex 50 0 260.606
      vertex 42.5494 9.04416 303.155
      vertex 43.5 0 260.606
    endloop
  endfacet
  facet normal 6.24153e-007 -0.978148 0.207912
    outer loop
      vertex 42.5494 9.04416 303.155
      vertex 50 0 260.606
      vertex 48.9074 10.3956 309.513
    endloop
  endfacet
  facet normal 0 -0.978148 0.207912
    outer loop
      vertex 42.5494 -9.04416 218.056
      vertex 50 0 260.606
      vertex 43.5 0 260.606
    endloop
  endfacet
  facet normal 3.51995e-007 -0.978148 0.207912
    outer loop
      vertex 42.5494 -9.04416 218.056
      vertex 48.9074 -10.3956 211.699
      vertex 50 0 260.606
    endloop
  endfacet
  facet normal 2.66565e-007 -0.978148 0.207912
    outer loop
      vertex 39.7392 -17.693 177.367
      vertex 48.9074 -10.3956 211.699
      vertex 42.5494 -9.04416 218.056
    endloop
  endfacet
  facet normal -4.10066e-007 -0.978148 0.207912
    outer loop
      vertex 39.7392 -17.693 177.367
      vertex 45.6773 -20.3368 164.929
      vertex 48.9074 -10.3956 211.699
    endloop
  endfacet
  facet normal -4.43336e-007 -0.978148 0.207912
    outer loop
      vertex 35.1922 -25.5687 140.315
      vertex 45.6773 -20.3368 164.929
      vertex 39.7392 -17.693 177.367
    endloop
  endfacet
  facet normal -3.90085e-007 -0.978148 0.207912
    outer loop
      vertex 35.1922 -25.5687 140.315
      vertex 40.4509 -29.3893 122.34
      vertex 45.6773 -20.3368 164.929
    endloop
  endfacet
  facet normal -2.78628e-007 -0.978148 0.207912
    outer loop
      vertex 29.1072 -32.3268 108.52
      vertex 40.4509 -29.3893 122.34
      vertex 35.1922 -25.5687 140.315
    endloop
  endfacet
  facet normal -2.66821e-007 -0.978148 0.207912
    outer loop
      vertex 29.1072 -32.3268 108.52
      vertex 33.4565 -37.1572 85.7948
      vertex 40.4509 -29.3893 122.34
    endloop
  endfacet
  facet normal -2.50475e-007 -0.978148 0.207912
    outer loop
      vertex 21.75 -37.6721 83.3726
      vertex 33.4565 -37.1572 85.7948
      vertex 29.1072 -32.3268 108.52
    endloop
  endfacet
  facet normal -9.87564e-008 -0.978148 0.207912
    outer loop
      vertex 25 -43.3013 56.8894
      vertex 21.75 -37.6721 83.3726
      vertex 13.4422 -41.371 65.9708
    endloop
  endfacet
  facet normal 1.02632e-007 -0.978148 0.207912
    outer loop
      vertex 25 -43.3013 56.8894
      vertex 13.4422 -41.371 65.9708
      vertex 4.54699 -43.2617 57.0756
    endloop
  endfacet
  facet normal -2.41217e-007 -0.978148 0.207912
    outer loop
      vertex 21.75 -37.6721 83.3726
      vertex 25 -43.3013 56.8894
      vertex 33.4565 -37.1572 85.7948
    endloop
  endfacet
  facet normal 1.14011e-007 -0.978148 0.207912
    outer loop
      vertex -5.22642 -49.7261 26.663
      vertex -4.54699 -43.2617 57.0756
      vertex -15.4508 -47.5528 36.8875
    endloop
  endfacet
  facet normal 0 -0.978148 0.207912
    outer loop
      vertex -4.54699 -43.2617 57.0756
      vertex -5.22642 -49.7261 26.663
      vertex 4.54699 -43.2617 57.0756
    endloop
  endfacet
  facet normal 9.99636e-008 -0.978148 0.207912
    outer loop
      vertex 4.54699 -43.2617 57.0756
      vertex 15.4508 -47.5528 36.8875
      vertex 25 -43.3013 56.8894
    endloop
  endfacet
  facet normal 0 -0.978148 0.207912
    outer loop
      vertex 5.22642 -49.7261 26.663
      vertex 4.54699 -43.2617 57.0756
      vertex -5.22642 -49.7261 26.663
    endloop
  endfacet
  facet normal -1.14011e-007 -0.978148 0.207912
    outer loop
      vertex 4.54699 -43.2617 57.0756
      vertex 5.22642 -49.7261 26.663
      vertex 15.4508 -47.5528 36.8875
    endloop
  endfacet
endsolid OpenSCAD_Model
